<svg width="64.000000" height="64.000000" viewBox="0 0 64 64" fill="none" xmlns="http://www.w3.org/2000/svg" xmlns:xlink="http://www.w3.org/1999/xlink">
	<desc>
			Created with Pixso.
	</desc>
	<defs/>
	<rect id="favicon" width="64.000000" height="64.000000" fill="#FFFFFF" fill-opacity="0"/>
	<path id="path" d="M55.99 26.64C55.99 13.39 45.24 2.66 31.99 2.66C18.75 2.66 7.99 13.39 7.99 26.64C7.99 39.9 18.75 50.66 31.99 50.66C45.24 50.66 55.99 39.9 55.99 26.64Z" fill="#000000" fill-opacity="0" fill-rule="nonzero"/>
	<path id="path" d="M31.99 2.66C45.24 2.66 55.99 13.39 55.99 26.64C55.99 39.9 45.24 50.66 31.99 50.66C18.75 50.66 7.99 39.9 7.99 26.64C7.99 13.39 18.75 2.66 31.99 2.66ZM25.02 9.83Q28.23 8.5 31.99 8.5Q35.76 8.5 38.97 9.83Q42.17 11.16 44.83 13.81Q47.5 16.48 48.83 19.69Q50.15 22.89 50.15 26.64Q50.15 30.38 48.84 33.58Q47.51 36.82 44.83 39.49Q42.14 42.18 38.9 43.51Q35.72 44.82 31.99 44.82Q28.27 44.82 25.09 43.51Q21.85 42.18 19.16 39.49Q16.48 36.82 15.15 33.58Q13.83 30.38 13.83 26.64Q13.83 22.89 15.16 19.69Q16.49 16.48 19.16 13.81Q21.81 11.16 25.02 9.83Z" fill="#1A73E8" fill-opacity="1.000000" fill-rule="evenodd"/>
	<path id="Union" d="M36.5632 19.0088Q37.2051 19.4307 37.7598 19.9854L37.7605 19.9861L37.7532 19.9939C38.4641 20.6738 39.5459 20.6738 40.2258 19.9939C40.3196 19.896 40.3984 19.791 40.4634 19.6812C40.8938 19.0068 40.8123 18.1204 40.2185 17.5266Q39.4253 16.7334 38.5088 16.126Q37.6704 15.5703 36.7288 15.1699Q35.7549 14.7561 34.7388 14.5383Q33.6133 14.2974 32.436 14.2974Q31.2588 14.2974 30.1333 14.5383Q29.1172 14.7561 28.1433 15.1699Q27.2019 15.5703 26.3635 16.126Q25.447 16.7334 24.6538 17.5266L24.6536 17.5271L24.6472 17.521C24.2949 17.8733 24.125 18.3337 24.1379 18.7942C24.1426 19.001 24.1846 19.207 24.2644 19.4023C24.3494 19.6147 24.4771 19.8159 24.6472 19.9939C24.7839 20.1306 24.937 20.2361 25.0999 20.3118C25.7527 20.6472 26.5596 20.5383 27.1125 19.9854Q27.6672 19.4307 28.3091 19.0088Q28.8726 18.6382 29.5037 18.3701Q30.1516 18.0945 30.8276 17.9465Q31.613 17.7744 32.436 17.7744Q33.2593 17.7744 34.0444 17.9465Q34.7205 18.0945 35.3687 18.3701Q35.9995 18.6382 36.5632 19.0088Z" clip-rule="evenodd" fill="#1A73E8" fill-opacity="1.000000" fill-rule="evenodd"/>
	<path id="path" d="M43.09 48.26L43.06 48.26C42.17 46.88 42.56 45.1 43.93 44.22C45.3 43.33 47.08 43.71 47.97 45.09L47.96 45.12L43.09 48.26ZM55.48 56.77L55.51 56.77C56.4 58.15 56.01 59.92 54.64 60.81C53.27 61.7 51.49 61.31 50.6 59.94L50.61 59.91L55.48 56.77Z" fill="#000000" fill-opacity="0" fill-rule="nonzero"/>
	<path id="path" d="M45.51 46.67L53.06 58.36" stroke="#1A73E8" stroke-opacity="1.000000" stroke-width="5.841620" stroke-linejoin="round" stroke-linecap="round"/>
</svg>
