<svg viewBox="0 0 208.222 27.3259" xmlns="http://www.w3.org/2000/svg" xmlns:xlink="http://www.w3.org/1999/xlink" width="208.222168" height="27.325928" fill="none">
	<rect id="tochka 1" width="208.222168" height="27.325928" x="0.000000" y="0.000000" />
	<path id="Vector 101" d="M194.311 26.6904L188.73 26.6904L188.73 7.59753L194.311 7.59753L194.311 14.518L195.705 14.518C198.456 14.518 199.413 14.0422 201.126 10.0247L202.162 7.59753L207.623 7.59753L207.623 8.03506L206.109 11.7747C205.193 14.0422 204.037 15.7923 202.641 16.9052L208.222 26.2529L208.222 26.6904L202.362 26.6904L197.698 18.8949L194.311 18.8949L194.311 26.6904Z" fill="rgb(25,25,25)" fill-rule="nonzero" />
	<path id="Vector 102" d="M165.802 7.59753L171.383 7.59753L171.383 14.1204L178.357 14.1204L178.357 7.59753L183.938 7.59753L183.938 26.6904L178.357 26.6904L178.357 18.9731L171.383 18.9731L171.383 26.6904L165.802 26.6904L165.802 7.59753Z" fill="rgb(25,25,25)" fill-rule="nonzero" />
	<path id="Vector 103" d="M143.225 7.877C145.575 7.31971 148.326 7.16003 150.08 7.16003C158.452 7.16003 160.684 10.8598 160.604 14.9173L160.604 22.593L162.597 22.633L162.597 26.6106C161.72 26.8501 160.764 27.0481 159.807 27.0481C157.455 27.0481 156.259 25.8154 155.98 24.3032L155.62 24.3032C154.187 26.2928 151.635 27.1679 149.163 27.1679C145.337 27.1679 141.789 25.1 141.789 20.7232C141.789 15.7923 146.334 14.5181 150.838 14.5181L155.421 14.5181C155.343 12.1724 152.591 11.3372 149.522 11.3372C147.689 11.3372 145.417 11.655 143.782 12.2921L143.225 7.877ZM147.37 20.7232C147.37 22.435 148.526 23.1104 150.401 23.1104C153.43 23.1104 155.422 21.4002 155.422 18.138L151.874 18.0981C148.566 18.0981 147.37 18.9731 147.37 20.7232Z" fill="rgb(25,25,25)" fill-rule="nonzero" />
	<path id="Vector 104" d="M130.81 5.40994C125.588 5.84746 122.759 7.63746 122.279 12.3304L122.719 12.3304C124.232 9.70531 126.904 8.23466 130.372 8.23466C135.075 8.23466 139.579 11.0977 139.579 17.7404C139.579 24.0653 135.115 27.2876 128.857 27.2876C121.642 27.2876 117.775 22.593 117.775 14.36C117.775 8.39275 119.688 1.47224 130.81 0.557281L137.506 0L137.586 4.85266L130.81 5.40994ZM128.976 22.593C132.445 22.593 133.839 20.5651 133.839 17.7404C133.839 14.6777 132.285 12.8877 129.096 12.8877C126.067 12.8877 124.352 14.5596 123.555 16.1101C123.555 19.928 124.951 22.593 128.976 22.593Z" fill="rgb(25,25,25)" fill-rule="nonzero" />
	<path id="Vector 105" d="M88.8026 7.877C91.1546 7.31971 93.9059 7.16003 95.6592 7.16003C104.03 7.16003 106.262 10.8598 106.182 14.9173L106.182 22.593L108.176 22.633L108.176 26.6106C107.298 26.8501 106.342 27.0481 105.385 27.0481C103.033 27.0481 101.837 25.8154 101.559 24.3032L101.2 24.3032C99.7646 26.2928 97.2145 27.1679 94.7426 27.1679C90.9151 27.1679 87.3687 25.1 87.3687 20.7232C87.3687 15.7923 91.9115 14.5181 96.4161 14.5181L101 14.5181C100.921 12.1724 98.171 11.3372 95.1019 11.3372C93.2672 11.3372 90.995 11.655 89.3615 12.2921L88.8026 7.877ZM92.9479 20.7232C92.9479 22.435 94.1039 23.1104 95.977 23.1104C99.0061 23.1104 101 21.4002 101 18.138L97.4524 18.0981C94.1439 18.0981 92.9479 18.9731 92.9479 20.7232Z" fill="rgb(25,25,25)" fill-rule="nonzero" />
	<path id="Vector 106" d="M72.0378 26.6904L66.457 26.6904L66.457 7.59753L72.0378 7.59753L72.0378 14.518L73.4334 14.518C76.1847 14.518 77.1412 14.0422 78.8545 10.0247L79.8909 7.59753L85.3519 7.59753L85.3519 8.03506L83.8365 11.7747C82.92 14.0422 81.7639 15.7923 80.3699 16.9052L85.9507 26.2529L85.9507 26.6904L80.0905 26.6904L75.4262 18.8949L72.0378 18.8949L72.0378 26.6904Z" fill="rgb(25,25,25)" fill-rule="nonzero" />
	<path id="Vector 107" d="M56.0987 7.59753L61.6795 7.59753L61.6795 26.6904L56.0987 26.6904L56.0987 19.8481C54.5849 20.4853 52.8301 20.8829 51.0369 20.8829C46.8117 20.8829 43.4233 18.6953 43.4233 13.2853L43.4233 7.59754L49.0041 7.59754L49.0041 13.3252C49.0041 15.0753 50.1203 16.5476 52.5522 16.5476C53.6684 16.5476 54.9825 16.2298 56.0987 15.7524L56.0987 7.59753Z" fill="rgb(25,25,25)" fill-rule="nonzero" />
	<path id="Vector 108" d="M30.3234 27.3259C24.4632 27.3259 19.561 23.508 19.561 17.1432C19.561 10.78 24.4632 6.96204 30.3234 6.96204C36.1437 6.96204 41.0459 10.78 41.0459 17.1448C41.0459 23.508 36.1437 27.3259 30.3234 27.3259ZM30.3234 22.633C33.4723 22.633 35.307 20.2857 35.307 17.1432C35.307 14.0023 33.4723 11.655 30.3234 11.655C27.1346 11.655 25.3015 14.0023 25.3015 17.1448C25.3015 20.2857 27.1346 22.633 30.3234 22.633Z" fill="rgb(25,25,25)" fill-rule="nonzero" />
	<path id="Vector 109" d="M18.1779 7.59754L18.1779 12.53L11.8786 12.53L11.8786 26.6904L6.29776 26.6904L6.29776 12.53L0 12.53L0 7.59753L18.1779 7.59754Z" fill="rgb(25,25,25)" fill-rule="nonzero" />
</svg>
