<svg viewBox="0 0 48 48" xmlns="http://www.w3.org/2000/svg" xmlns:xlink="http://www.w3.org/1999/xlink" width="48.000000" height="48.000000" fill="none" customFrame="#000000">
	<mask id="mask_2" width="47.952858" height="47.971169" x="0.038452" y="0.017029" maskUnits="userSpaceOnUse">
		<g filter="url(#pixso_custom_mask_type_alpha)">
			<g id="SVGID_00000076592272466494375700000017632552893166071178_">
				<path id="SVGID_00000142160326691687573660000009965881666907453568_" d="M38.4001 0.0170288L9.6297 0.0170288C4.33167 0.0170288 0.0384521 4.31219 0.0384521 9.61262L0.0384521 38.396C0.0384521 43.693 4.33167 47.9882 9.6297 47.9882L38.4001 47.9882C43.6947 47.9882 47.9879 43.693 47.9913 38.396L47.9913 9.61262C47.9913 4.31219 43.6981 0.0170288 38.4001 0.0170288Z" fill="rgb(0,0,0)" fill-rule="evenodd" />
			</g>
		</g>
	</mask>
	<mask id="mask_1" width="47.952858" height="47.971169" x="0.038452" y="0.017029" maskUnits="userSpaceOnUse">
		<g filter="url(#pixso_custom_mask_type_alpha)">
			<g id="SVGID_00000076592272466494375700000017632552893166071178_">
				<path id="SVGID_00000142160326691687573660000009965881666907453568_" d="M38.4001 0.0170288L9.6297 0.0170288C4.33167 0.0170288 0.0384521 4.31219 0.0384521 9.61262L0.0384521 38.396C0.0384521 43.693 4.33167 47.9882 9.6297 47.9882L38.4001 47.9882C43.6947 47.9882 47.9879 43.693 47.9913 38.396L47.9913 9.61262C47.9913 4.31219 43.6981 0.0170288 38.4001 0.0170288Z" fill="rgb(0,0,0)" fill-rule="evenodd" />
			</g>
		</g>
	</mask>
	<mask id="mask_0" width="47.952866" height="47.971180" x="0.038452" y="0.016968" maskUnits="userSpaceOnUse">
		<g filter="url(#pixso_custom_mask_type_alpha)">
			<g id="SVGID_00000142178519453311819540000009764515976392895363_">
				<path id="SVGID_1_" d="M38.4001 47.9881L9.6297 47.9881C4.33168 47.9881 0.0384521 43.693 0.0384521 38.3959L0.0384521 9.61256C0.0384521 4.31214 4.33168 0.0169678 9.6297 0.0169678L38.4001 0.0169678C43.6981 0.0169678 47.9913 4.31214 47.9913 9.61256L47.9913 38.3959C47.9879 43.693 43.6947 47.9881 38.4001 47.9881Z" fill="rgb(0,0,0)" fill-rule="evenodd" />
			</g>
		</g>
	</mask>
	<defs>
		<clipPath id="clipPath_2">
			<rect width="48.000000" height="48.000000" x="0.000000" y="0.000000" rx="24.000000" fill="rgb(255,255,255)" />
		</clipPath>
		<clipPath id="clipPath_3">
			<rect width="48.000004" height="48.000004" x="0.000000" y="0.000000" fill="rgb(255,255,255)" />
		</clipPath>
		<filter id="pixso_custom_mask_type_alpha">
			<feColorMatrix type="matrix" values="0 0 0 0 1 0 0 0 0 1 0 0 0 0 1 0 0 0 1 0 " />
		</filter>
	</defs>
	<rect id="Property 1=ozon" width="48.000000" height="48.000000" x="0.000000" y="0.000000" fill="rgb(255,255,255)" fill-opacity="0" />
	<g id="Frame 18911" clip-path="url(#clipPath_2)" customFrame="url(#clipPath_2)">
		<rect id="Frame 18911" width="48.000000" height="48.000000" x="0.000000" y="0.000000" rx="24.000000" />
		<g id="ozon-icon-logo 1" clip-path="url(#clipPath_3)" customFrame="url(#clipPath_3)">
			<rect id="ozon-icon-logo 1" width="48.000004" height="48.000004" x="0.000000" y="0.000000" />
			<g id="Group 84">
				<g id="Group 85">
					<g id="clip path group" mask="url(#mask_0)">
						<g id="Group 87">
							<rect id="Rectangle 98" width="47.949478" height="47.971180" x="0.038452" y="0.016968" fill="rgb(0,91,255)" />
						</g>
					</g>
				</g>
				<g id="Group 88">
					<g id="clip path group" mask="url(#mask_1)">
						<g id="Group 90">
							<g id="Group 91">
								<g id="Group 92">
									<g id="Group 93">
										<path id="Vector 524" d="M53.2927 41.1173C49.6493 44.396 45.4492 49.2352 40.173 49.0447C38.7527 48.0871 40.9988 46.2204 41.7187 45.4125C44.0183 42.8317 46.2871 40.0769 48.5225 37.269C56.564 27.1681 53.9316 32.7985 53.2927 41.1173Z" fill="rgb(241,17,126)" fill-rule="evenodd" />
										<path id="Vector 525" d="M43.9417 -8.56319C40.3527 -0.353554 35.9522 7.80185 29.7429 14.3615C25.4463 18.9005 22.455 22.2901 17.1537 26.3695C11.0213 31.0883 5.0218 34.7666 -0.786761 39.7704C-3.85624 42.5976 -7.47511 44.9356 -11.3799 46.5967C-11.356 46.9152 -11.0278 51.5218 -11.0176 51.5827C-10.9635 51.5522 -9.87752 50.679 -9.661 50.5199C-0.496862 44.1437 10.04 39.8589 19.0108 33.0305C30.0491 23.7411 39.2945 12.2551 47.1897 0.216885C54.3751 -9.81986 59.0874 -9.98896 43.9417 -8.56319Z" fill="rgb(241,17,126)" fill-rule="evenodd" />
										<path id="Vector 526" d="M8.81104 2.55551C6.6695 4.82325 4.57871 7.09438 2.48454 9.40951C1.34441 10.6754 0.315934 12.0394 -0.810658 13.3256C-2.82364 15.6238 -4.90766 17.8949 -7.28602 19.7734C-9.69821 21.6756 -12.2931 23.5981 -14.7526 25.4394C-14.7594 25.3006 -15.0504 18.8494 -15.0571 18.7039C-14.0151 16.937 -12.9663 14.9367 -12.1916 13.0176C-11.7349 11.8837 -11.3323 10.6923 -10.8722 9.55843C-9.99254 7.37531 -8.83889 5.37834 -7.14054 3.78754C-6.19326 2.89736 -5.10388 2.26781 -3.98406 1.66872C-0.624584 -0.131931 2.73151 -1.96305 6.09775 -3.74678C8.10396 -4.81295 9.62299 -6.67115 11.4127 -8.07579L18.5139 -8.39734C15.2898 -4.72495 12.1705 -1.0018 8.81104 2.55551Z" fill="rgb(241,17,126)" fill-rule="evenodd" />
										<path id="Vector 527" d="M24.3829 54.1875C27.0554 51.473 36.4184 45.1672 34.9265 44.3029C34.7922 44.2252 34.6262 44.2253 34.4865 44.2929C29.3443 46.7798 24.5437 50.3135 20.9308 54.794C20.8376 54.9096 20.6974 54.9767 20.5489 54.9752C19.7029 54.9665 16.968 54.9358 15.2134 54.9163C14.7446 54.9111 14.5568 54.3083 14.9396 54.0375C15.2367 53.8274 15.4825 53.6488 15.6212 53.5459C19.8584 50.2777 24.5784 47.8246 29.1515 45.1582C34.6341 41.9614 39.3875 37.6515 43.1079 32.5084C44.8191 30.1429 46.5639 27.8066 48.6076 25.7368C48.6296 25.7145 48.6538 25.6946 48.6797 25.677C54.3853 21.7976 55.9636 10.1958 63.834 6.09605C64.1591 5.92666 64.5468 6.16275 64.5437 6.52951C64.5178 9.51408 60.5751 11.9407 60.3165 15.0033C60.314 15.0334 60.3089 15.0633 60.3009 15.0925C57.2413 26.2228 46.4589 33.7723 41.3419 39.5831C38.3024 43.0347 34.6981 49.9017 30.5555 54.4864C30.51 54.5368 30.4758 54.5961 30.4547 54.6606C30.2475 55.2921 26.5391 55.0741 24.7117 55.0092C24.2919 54.9943 24.0881 54.487 24.3829 54.1875Z" fill="rgb(241,17,126)" fill-rule="evenodd" />
										<path id="Vector 528" d="M-13.3914 56.3065C-3.13263 49.2245 9.13037 45.5385 19.1786 38.2379C24.9991 33.228 29.4514 26.6846 35.3543 21.8135C36.9855 20.8302 36.5278 22.3223 35.9982 23.2891C30.0693 35.1859 18.2312 42.0122 7.20053 48.5379C-0.754492 53.6271 -2.33898 57.8697 -13.3914 56.3065Z" fill="rgb(241,17,126)" fill-rule="evenodd" />
										<path id="Vector 529" d="M57.2757 7.51808C66.1812 3.09442 63.8701 -1.57836 62.717 -10.5065C58.0628 -7.1993 55.1356 -3.4597 51.5809 0.903913C41.0667 13.0772 37.3416 30.8924 23.094 40.0032C15.778 44.261 9.86474 50.3168 3.61426 55.9284C5.0271 55.4314 12.9511 56.2608 13.3512 54.0804C15.2196 50.92 17.2589 48.4118 20.693 46.9224C27.1351 43.5389 32.6937 38.7342 38.346 34.199C46.1018 26.5236 46.1081 12.0487 57.2757 7.51808Z" fill="rgb(241,17,126)" fill-rule="evenodd" />
									</g>
								</g>
							</g>
							<path id="Vector 530" d="M42.8975 -8.53211C37.2372 1.7261 26.8637 12.21 16.3738 20.06C12.2889 23.1168 7.54642 25.167 2.52899 26.0877C-1.299 26.7902 -2.96776 27.907 -8.43838 32.5046C-10.3297 34.4771 -11.3481 36.3082 -12.9821 39.4594C-12.9855 39.3511 -13.4287 29.6302 -13.4287 29.6302C-9.07663 23.6987 -2.42242 21.126 2.61778 16.0714C6.77388 11.7296 9.67464 6.28489 13.5082 1.6627C15.4223 -0.771361 21.4897 -6.26162 22.6323 -7.61508C22.6459 -7.61486 28.9115 -7.89917 28.9115 -7.89917C26.0473 -4.26978 23.1301 -0.806354 17.0782 6.35895C16.35 7.22104 10.3359 13.4161 8.13752 16.8246C7.42177 17.9343 6.93695 19.0627 7.47706 19.4838C8.04922 19.9298 8.85489 19.1881 10.1578 18.3736C17.6342 13.7002 22.8607 9.28872 28.9151 1.74405C38.7158 -10.4691 31.2036 -9.3832 42.8975 -8.53211Z" fill="rgb(241,17,126)" fill-rule="evenodd" />
						</g>
					</g>
					<g id="clip path group" mask="url(#mask_2)">
						<g id="Group 95">
							<path id="Vector 531" d="M20.1367 27.6562L15.9058 28.7903L19.3921 20.1873C19.4686 19.9952 19.3751 19.7776 19.1832 19.7011C19.1091 19.6715 19.0276 19.6664 18.9504 19.6865L11.1336 21.782C10.4436 21.9669 10.0341 22.6765 10.219 23.3668C10.4039 24.0571 11.1132 24.4668 11.8031 24.2818L15.3182 23.3396L11.8125 31.9514C11.7331 32.1401 11.8217 32.3575 12.0103 32.4369C12.0876 32.4694 12.1736 32.4748 12.2542 32.4521L20.8071 30.1593C21.4866 29.9387 21.8587 29.2088 21.6381 28.5291C21.4337 27.8988 20.7864 27.5249 20.1385 27.6629L20.1367 27.6562ZM45.3822 12.6009C44.6922 12.7859 44.2828 13.4955 44.4676 14.1858L45.5904 18.378L37.4015 14.8273C37.2148 14.7433 36.9955 14.8266 36.9115 15.0134C36.8761 15.0922 36.8693 15.181 36.8924 15.2643L39.2004 23.8818C39.3853 24.5721 40.0945 24.9817 40.7845 24.7967C41.4744 24.6117 41.884 23.9022 41.6991 23.212L40.5763 19.0197L48.7662 22.5738C48.9562 22.6549 49.1759 22.5664 49.2568 22.3763C49.2895 22.2996 49.2957 22.2141 49.2743 22.1335L46.9663 13.516C46.7814 12.8257 46.0722 12.416 45.3822 12.6009ZM29.6511 25.3591C26.7945 26.1248 24.2536 25.1911 23.8926 23.8433C23.5316 22.4954 25.2655 20.4159 28.1221 19.6502C30.9787 18.8844 33.5195 19.818 33.8805 21.1658C34.2415 22.5137 32.5144 24.5915 29.6511 25.3591ZM27.4534 17.1537C23.3172 18.2625 20.6056 21.5564 21.3973 24.5122C22.1889 27.468 26.1834 28.9643 30.3197 27.8555C34.456 26.7467 37.1674 23.4528 36.3757 20.4969C35.5841 17.5411 31.5897 16.0449 27.4534 17.1537ZM5.0604 31.9547C3.4833 32.3795 1.86057 31.4448 1.4359 29.8669C1.01138 28.289 1.94569 26.6656 3.52282 26.2409C5.09992 25.816 6.72264 26.7508 7.14729 28.3286L7.14819 28.332C7.57058 29.9091 6.63628 31.5303 5.0604 31.9547ZM2.86187 23.746C-0.094373 24.5364 -1.85041 27.5749 -1.06023 30.5324C-0.270126 33.4901 2.76692 35.2468 5.72317 34.4564C8.67937 33.6658 10.4354 30.6275 9.64523 27.6698C9.64463 27.6676 9.64402 27.6653 9.64342 27.6631C8.85195 24.7079 5.81578 22.9541 2.86187 23.746Z" fill="rgb(255,255,255)" fill-rule="evenodd" />
						</g>
					</g>
				</g>
				<path id="Vector 532" d="M38.4001 47.9881L9.6297 47.9881C4.33168 47.9881 0.0384521 43.693 0.0384521 38.3959L0.0384521 9.61256C0.0384521 4.31214 4.33168 0.0169678 9.6297 0.0169678L38.4001 0.0169678C43.6981 0.0169678 47.9913 4.31214 47.9913 9.61256L47.9913 38.3959C47.9879 43.693 43.6947 47.9881 38.4001 47.9881Z" fill-rule="nonzero" />
			</g>
		</g>
	</g>
</svg>
