<svg viewBox="0 0 204.678 42" xmlns="http://www.w3.org/2000/svg" xmlns:xlink="http://www.w3.org/1999/xlink" width="204.678223" height="42.000000" fill="none">
	<rect id="kaspersky-1 1" width="204.678360" height="42.000000" x="0.000000" y="0.000000" />
	<path id="Vector 158" d="M92.6124 22.723C92.6124 30.4813 87.8789 34.1491 81.9543 34.1491L78.3335 34.1491L78.3335 29.4938L81.6721 29.4938C85.2458 29.4938 87.6279 27.5662 87.6279 22.723C87.6279 17.9267 85.375 15.5281 81.5662 15.5281C77.8984 15.5281 75.2769 17.7856 75.2769 22.6289L75.2769 42.0962L70.3396 42.0962L70.3396 11.4841L75.2769 11.4841L75.2769 14.1179L75.9823 14.1179C77.6281 11.9077 80.0614 10.9199 82.6006 10.9199C88.0553 10.9199 92.6124 14.8698 92.6124 22.723L92.6124 22.723ZM60.1634 20.7007L56.8717 20.3714C54.2856 20.1362 52.9218 19.4309 52.9218 17.9261C52.9218 16.1392 54.6618 15.1047 57.1539 15.1047C59.7402 15.1047 61.3859 16.3274 61.527 18.0672L66.2763 18.0672C66.0883 13.6471 62.6557 10.9197 57.201 10.9197C51.6994 10.9197 47.9845 13.8353 47.9845 18.1141C47.9845 21.688 50.2416 23.992 55.3671 24.5093L58.7056 24.8384C60.7277 25.0264 62.0914 25.4496 62.0914 27.3776C62.0914 29.1176 60.8216 30.387 57.4832 30.387C54.4088 30.387 52.8939 28.992 52.3624 27.122L47.2243 27.122C47.7362 31.3965 51.3271 34.7131 57.4832 34.7131C63.2669 34.7131 67.0286 31.6566 67.0286 27.1426C67.0286 23.1456 64.3955 21.1237 60.1634 20.7005L60.1634 20.7007ZM111.735 27.1222C110.96 28.9011 109.109 30.2463 106.483 30.2463C102.863 30.2463 100.182 27.8951 100.182 22.8167C100.182 17.9732 102.674 15.293 106.53 15.293C109.963 15.293 111.938 17.362 112.126 20.4655L103.239 20.4655L103.239 24.0395L116.969 24.0395L116.969 21.6882C116.969 15.1519 112.643 10.9199 106.483 10.9199C100.747 10.9199 95.2447 14.8228 95.2447 22.8167C95.2447 30.8104 100.747 34.7133 106.483 34.7133C111.73 34.7133 115.472 31.4812 116.634 27.1222L111.735 27.1222ZM33.9014 10.9199C28.4939 10.9199 24.4499 13.7416 23.9797 18.0674L29.2931 18.0674C29.6694 16.4689 31.127 15.2934 33.9014 15.2934C37.4752 15.2934 38.6507 17.1746 38.6507 19.4784L38.6507 27.2367C36.6288 29.5412 34.2776 30.6224 31.9265 30.6224C29.4814 30.6224 27.7885 29.4469 27.7885 27.3313C27.7885 25.3088 29.1051 24.0395 31.6443 24.0395L35.5942 24.0395L35.5942 20.4655L31.5033 20.4655C25.8606 20.4655 22.7101 23.2873 22.7101 27.613C22.7101 31.6568 25.7664 34.7133 30.7979 34.7133C33.6193 34.7133 36.1115 33.5852 37.9454 32.2211L38.6507 32.2211L38.6507 34.1491L43.5881 34.1491L43.5881 19.0079C43.5881 13.4121 39.7793 10.9199 33.9014 10.9199L33.9014 10.9199ZM0.401367 34.1491L5.33873 34.1491L5.33873 3.1142L0.401367 3.1142L0.401367 34.1491ZM21.1383 11.4841L15.1195 11.4841L7.9247 20.9361L7.9247 23.8985L15.3072 34.1491L21.4202 34.1491L12.7684 22.3935L21.1383 11.4841ZM199.625 11.4841L195.581 20.4657C194.594 22.6291 193.654 24.7447 193.371 26.1558L192.665 26.1558C192.383 24.7447 191.396 22.6758 190.409 20.5131L186.365 11.4843L180.91 11.4843L190.409 31.8452L185.706 42.0964L190.973 42.0964L205.08 11.4841L199.625 11.4841ZM179.818 11.4841L173.799 11.4841L166.605 20.9361L166.605 23.8985L173.987 34.1491L180.1 34.1491L171.448 22.3935L179.818 11.4841ZM148.905 20.7007L145.613 20.3714C143.027 20.1362 141.663 19.4309 141.663 17.9261C141.663 16.1392 143.403 15.1047 145.895 15.1047C148.482 15.1047 150.127 16.3274 150.268 18.0672L155.018 18.0672C154.83 13.6471 151.397 10.9197 145.942 10.9197C140.441 10.9197 136.726 13.8353 136.726 18.1141C136.726 21.688 138.983 23.992 144.108 24.5093L147.447 24.8384C149.469 25.0264 150.833 25.4496 150.833 27.3776C150.833 29.1176 149.563 30.387 146.224 30.387C143.15 30.387 141.635 28.992 141.104 27.122L135.966 27.122C136.478 31.3965 140.068 34.7131 146.224 34.7131C152.008 34.7131 155.77 31.6566 155.77 27.1426C155.77 23.1456 153.137 21.1237 148.905 20.7005L148.905 20.7007ZM159.081 34.1491L164.018 34.1491L164.018 3.1142L159.081 3.1142L159.081 34.1491ZM126.523 14.1179L125.817 14.1179L125.817 11.4839L120.88 11.4839L120.88 34.1491L125.817 34.1491L125.817 22.2994C125.817 18.2554 127.686 15.9042 131.366 15.9042L134.492 15.9042L134.492 10.9201L132.683 10.9201C129.268 10.9201 127.817 12.2079 126.523 14.1181L126.523 14.1179Z" fill="rgb(0,109,92)" fill-rule="nonzero" />
</svg>
