<svg viewBox="0 0 240.363 36" xmlns="http://www.w3.org/2000/svg" xmlns:xlink="http://www.w3.org/1999/xlink" width="240.362793" height="36.000000" fill="none">
	<rect id="RU — Dodo Pizza — One line — Black letters — RGB 1" width="240.362701" height="36.000004" x="0.000000" y="0.000000" />
	<g id="Group 32">
		<g id="Group 33">
			<path id="Vector 87" d="M16.2514 0C26.7429 0 34.7657 7.2 34.7657 17.8971C34.7657 28.6457 26.6914 36 16.2514 36L4.4743 36C2.10858 36 0.154297 34.4057 0.154297 31.68L0.154297 4.47429C0.154297 1.74857 2.10858 9.80922e-07 4.4743 9.80922e-07L16.2514 9.80922e-07L16.2514 0Z" fill="rgb(255,105,0)" fill-rule="nonzero" />
			<path id="Vector 88" d="M5.76 36C8.74286 34.3543 10.2343 32.8114 11.3143 31.3714C13.32 32.2457 15.2743 32.6571 17.0229 32.6571C20.3143 32.6571 23.0914 31.1657 24.5314 28.44C26.0229 27.5657 27 25.7143 27.1028 24.3771C28.0286 23.1943 28.1828 21.7029 27.9257 20.7257C27.8743 20.4686 27.6686 20.4686 27.3086 20.6743C24.3771 22.4229 21.4971 23.2971 18.7714 23.2971C17.1257 23.2971 15.4286 23.04 13.6286 22.5257C13.4743 20.5714 13.1143 18.9771 12.96 18C12.7029 16.7143 13.0114 15.7371 14.4514 15.7371C15.48 15.7371 17.4343 15.9943 18.9771 16.7143C20.52 17.4343 21.3943 18.7714 22.0628 18.7714C22.32 18.7714 22.5771 18.6171 22.5771 18.0514C22.5771 16.92 22.1657 15.1714 21.7029 14.5028C23.1429 14.4 24.2743 14.4514 24.8914 14.5028C26.2286 14.76 26.28 15.4286 26.5371 15.84C26.7943 16.2514 27.2571 16.4571 27.7714 16.4571C28.7486 16.4571 29.3657 15.9428 29.3657 14.0914C29.3657 10.0286 26.7943 8.07428 24.12 8.07428C21.9086 8.07428 21.0857 8.53714 18.9771 8.53714C17.4857 8.53714 16.2514 5.50285 14.5543 5.14285C13.8343 3.49714 12.1371 3.29142 11.1086 4.11428C10.1829 3.54857 8.69143 3.85714 8.64 4.88571C7.56 4.57714 6.17143 5.14285 6.78857 6.53142C4.16571 6.58285 3.65143 8.94857 5.45143 9.20571C3.13714 10.4914 4.21714 12.7543 6.12 12.2914C6.27428 13.8857 6.89143 16.4571 6.89143 18.2571C6.89143 20.7257 5.76 21.2914 4.21714 21.2914C2.98286 21.2914 1.23429 20.8286 0 20.52L0 22.2686C1.23429 22.5771 3.03428 22.9371 4.42286 22.9371C6.84 22.9371 8.17714 21.4971 8.17714 18.8229C8.17714 15.5314 7.09714 12.4971 7.45714 10.5943L7.35428 10.4914C6.17143 11.7257 5.34857 11.4171 5.29714 11.0057C5.14286 10.1829 6.53143 9.20571 7.35428 8.84571C7.35428 8.79428 7.40571 8.74285 7.40571 8.69143C6.63428 8.79428 5.76 8.69143 5.70857 8.17714C5.65714 7.56 6.94286 6.94285 8.64 7.09714C8.69143 7.04571 8.69143 7.04571 8.74286 6.99428C8.64 6.94286 8.53714 6.89143 8.38285 6.84C7.97143 6.63428 7.81714 6.22285 7.97143 5.96571C8.12571 5.65714 8.58857 5.55428 9 5.55428C9.61714 5.55428 10.1314 5.70857 10.4914 5.86285C10.5429 5.86285 10.5943 5.81143 10.5943 5.81143C10.44 5.70857 10.3371 5.60571 10.2857 5.45143C10.1829 5.29714 10.1314 5.04 10.3371 4.88571C10.5943 4.68 11.16 4.62857 11.7257 5.14286C11.8286 5.24571 11.9314 5.34857 12.0343 5.45143C12.0857 5.45143 12.1371 5.45143 12.24 5.4C12.1371 5.24571 12.0857 5.14286 12.0343 4.98857C11.9829 4.78286 12.0857 4.62857 12.2914 4.52571C12.5486 4.47429 12.8057 4.57714 12.96 4.78286C13.1143 5.04 13.2171 5.34857 13.2686 5.55429C12.24 5.75999 9.10285 6.47999 9.10285 10.2857C9.10285 13.9886 12.1886 17.8971 12.1886 23.6571C12.1886 25.7657 11.7257 27.8743 9.82285 30.2914C8.33143 32.1943 6.01714 33.9943 2.41714 35.4857C3.03429 35.7943 3.75429 35.9486 4.52571 35.9486L5.76 35.9486L5.76 36ZM20.3143 12.6C20.6743 11.52 20.9829 10.6971 21.6 10.08C22.2171 9.41142 22.8857 9.20571 24.4286 9.20571C26.5371 9.20571 28.2857 11.3143 28.2857 14.2971C28.2857 14.76 27.72 14.7086 27.5143 14.3486C26.7943 13.1143 25.8171 12.9086 24.3257 12.8057C23.1943 12.7543 21.8571 12.8571 20.6229 12.9086C20.3143 12.8571 20.2629 12.7028 20.3143 12.6ZM13.6286 24.48C15.2743 24.9429 17.5886 25.2 19.4914 25.0457C22.8343 24.7886 25.3543 23.5543 26.7428 22.68C25.92 24.84 22.7314 26.1257 19.6457 26.5371C19.6457 26.6914 19.5943 26.8457 19.5943 27C21.9086 26.8971 24.12 26.1257 25.0971 25.4571C24.5314 27.5657 21.7029 28.3886 19.1314 28.5428C19.08 28.6971 18.9771 28.8514 18.9257 29.0057C20.4171 29.0571 21.8571 28.7486 22.68 28.4914C21.9086 29.9314 19.2857 31.1143 16.56 31.1143C15.2229 31.1143 13.5771 30.8571 12.1371 30.1886C13.1657 28.1828 13.5257 26.28 13.6286 24.48Z" fill="rgb(0,0,0)" fill-rule="nonzero" />
			<path id="Vector 89" d="M0.102539 27.5657C1.38825 27.3086 2.62254 27.1029 2.62254 27.1029L2.77682 26.4343C2.21111 26.3829 1.07968 26.4343 0.102539 26.4343L0.102539 27.5657Z" fill="rgb(0,0,0)" fill-rule="nonzero" />
			<path id="Vector 90" d="M13.7314 7.20002C14.1943 7.04574 14.8114 7.50859 15.1714 8.17717C15.5314 8.84574 15.4286 9.51431 14.9657 9.6686C14.5029 9.82288 13.8857 9.41145 13.5771 8.69145C13.5257 8.5886 13.4743 8.48574 13.4743 8.43431L13.5771 8.43431C13.7314 8.5886 13.8857 8.5886 13.9886 8.53717C14.1429 8.43431 14.1429 8.17717 13.9886 7.92002C13.8857 7.71431 13.68 7.5086 13.4743 7.56002L13.4229 7.50859C13.5257 7.35431 13.6286 7.25145 13.7314 7.20002ZM16.8686 14.0914C14.9143 13.68 12.7029 13.0629 11.5714 11.3657C11.5714 11.3143 11.52 11.3143 11.4686 11.3143C11.4171 11.3143 11.4171 11.3657 11.4171 11.4172C11.4171 11.52 11.4171 11.6229 11.4686 11.7257L11.3143 11.7772C11.0057 11.3657 10.9543 10.8514 11.2629 10.44C11.6743 9.92574 12.6 9.97717 13.1143 10.2857L13.0629 10.44C12.8057 10.3886 12.4971 10.3886 12.2914 10.5429C12.1371 10.6457 12.0857 10.8 12.1886 11.0057C13.1657 12.8057 15.9429 13.1657 19.2343 12.9086C19.5943 12.8572 19.6457 12.7029 19.6971 12.5486C20.0057 11.4172 20.52 10.3886 21.2914 9.61717C20.6743 9.72002 20.1086 9.72002 19.6457 9.77145C17.9486 9.87431 16.9714 9.66859 16.6629 9.41145L16.7143 9.25717C16.92 9.30859 17.0743 9.30859 17.1257 9.25717C17.1771 9.20574 17.1257 9.15431 17.0743 9.05145C16.7657 8.74288 15.2743 7.25145 15.2743 7.25145C15.12 5.96574 13.2686 5.96574 12.5486 7.20002L12.1886 7.14859C12.24 6.89145 12.3943 6.63431 12.4971 6.48002C10.9543 6.84002 10.08 8.2286 9.92572 9.56574C9.25715 15.2743 17.9486 13.9372 20.4171 16.2514C20.4686 16.3029 20.5714 16.4572 20.6743 16.3543C20.7771 16.0457 19.6457 14.7086 16.8686 14.0914Z" fill="rgb(255,255,255)" fill-rule="nonzero" />
			<path id="Vector 91" d="M26.7427 22.68C25.3541 23.6057 22.8341 24.84 19.4913 25.0457C17.5884 25.2 15.3256 24.9429 13.6284 24.48C13.6284 25.0457 13.5255 25.6114 13.4741 26.1771C14.3998 26.4343 16.0455 26.7428 18.4627 26.7943C18.3598 27.4629 17.6913 29.6228 16.0455 31.0114C19.0798 31.1143 21.857 29.9314 22.6798 28.3886C21.8055 28.6457 20.417 28.9543 18.9255 28.9028C19.0284 28.7486 19.0798 28.5943 19.1313 28.44C21.7027 28.3371 24.5313 27.4628 25.097 25.3543C24.1198 26.0228 21.9084 26.7943 19.5941 26.8971C19.6455 26.7428 19.6455 26.5886 19.6455 26.4343C22.6798 26.1257 25.8684 24.7886 26.7427 22.68Z" fill="rgb(255,255,255)" fill-rule="nonzero" />
		</g>
		<g id="Group 34">
			<g id="Group 35">
				<g id="Group 36">
					<g id="Group 37">
						<path id="Vector 92" d="M240.12 24.0171L234.257 11.16C233.588 9.77144 232.662 9.1543 231.325 9.1543L231.12 9.1543C229.731 9.1543 228.805 9.77144 228.137 11.16L222.274 24.0171C221.708 25.3029 222.12 26.4343 223.302 26.8971C224.382 27.3086 225.36 27.0514 225.977 25.8171L227.314 22.9886C228.497 23.4 229.988 23.6057 231.325 23.6057C232.765 23.6057 234.154 23.4 235.182 22.9886L236.468 25.8171C237.034 27.0514 238.165 27.2571 239.142 26.8971C240.222 26.3829 240.685 25.2514 240.12 24.0171ZM231.222 19.7486C230.348 19.7486 229.371 19.6457 228.651 19.3886L231.171 13.7829L233.691 19.3886C232.92 19.5943 232.097 19.7486 231.222 19.7486Z" fill="rgb(0,0,0)" fill-rule="nonzero" />
						<path id="Vector 93" d="M218.931 22.8343L217.8 22.8343L217.8 11.0572C217.8 9.72004 216.771 8.94861 215.588 8.94861C214.405 8.94861 213.48 9.72004 213.48 11.0572L213.48 22.8343L205.971 22.8343L205.971 11.0572C205.971 9.72004 204.994 8.94861 203.76 8.94861C202.525 8.94861 201.548 9.72004 201.548 11.0572L201.548 24.8915C201.548 26.0743 202.32 27 203.657 27L216.72 27L216.72 28.9029C216.72 30.24 217.697 31.0115 218.828 31.0115C220.063 31.0115 220.937 30.24 220.937 28.9029L220.937 24.9429C221.04 23.5543 220.217 22.8343 218.931 22.8343Z" fill="rgb(0,0,0)" fill-rule="nonzero" />
						<path id="Vector 94" d="M197.177 22.8343L196.045 22.8343L196.045 11.0572C196.045 9.72004 195.017 8.94861 193.834 8.94861C192.651 8.94861 191.725 9.72004 191.725 11.0572L191.725 22.8343L184.217 22.8343L184.217 11.0572C184.217 9.72004 183.24 8.94861 182.005 8.94861C180.771 8.94861 179.794 9.72004 179.794 11.0572L179.794 24.8915C179.794 26.0743 180.565 27 181.903 27L194.965 27L194.965 28.9029C194.965 30.24 195.943 31.0115 197.074 31.0115C198.308 31.0115 199.183 30.24 199.183 28.9029L199.183 24.9429C199.285 23.5543 198.462 22.8343 197.177 22.8343Z" fill="rgb(0,0,0)" fill-rule="nonzero" />
						<path id="Vector 95" d="M173.005 9.10289L172.851 9.10289C171.565 9.10289 170.743 9.72003 169.817 11.0057L162.771 21.0343L162.771 11.0572C162.771 9.72004 161.897 8.94861 160.714 8.94861C159.48 8.94861 158.605 9.72004 158.605 11.0572L158.605 24.5829C158.605 26.0229 159.583 27 161.023 27L161.228 27C162.565 27 163.491 26.3315 164.314 25.0972L171.36 15.0686L171.36 25.0972C171.36 26.4343 172.234 27.2057 173.417 27.2057C174.6 27.2057 175.474 26.4343 175.474 25.0972L175.474 11.4686C175.474 10.0286 174.6 9.10289 173.005 9.10289Z" fill="rgb(0,0,0)" fill-rule="nonzero" />
						<path id="Vector 96" d="M151.92 9.10284L139.834 9.10284C138.446 9.10284 137.726 10.08 137.726 11.2114L137.726 25.0457C137.726 26.3828 138.754 27.1543 139.937 27.1543C141.12 27.1543 142.046 26.3828 142.046 25.0457L142.046 13.2686L149.76 13.2686L149.76 25.0457C149.76 26.3828 150.737 27.1543 151.971 27.1543C153.154 27.1543 154.183 26.3828 154.183 24.9428L154.183 11.16C154.131 10.0286 153.308 9.10284 151.92 9.10284Z" fill="rgb(0,0,0)" fill-rule="nonzero" />
					</g>
					<g id="Group 38">
						<path id="Vector 97" d="M120.6 8.94861C115.405 8.94861 111.394 12.8572 111.394 18.1029C111.394 23.3486 115.354 27.2572 120.6 27.2572C125.743 27.2572 129.805 23.2972 129.805 18.0515C129.703 12.7543 125.743 8.94861 120.6 8.94861ZM120.6 23.0915C117.72 23.0915 115.714 20.9829 115.714 18.0515C115.714 15.1715 117.771 13.0629 120.6 13.0629C123.48 13.0629 125.485 15.1715 125.485 18.0515C125.434 20.9829 123.48 23.0915 120.6 23.0915Z" fill="rgb(0,0,0)" fill-rule="nonzero" />
						<path id="Vector 98" d="M108.36 22.8343L107.228 22.8343L107.228 11.2115C107.228 10.0286 106.457 9.10291 105.12 9.10291L95.1939 9.10291C94.011 9.10291 93.2396 9.87433 93.2396 11.2115L93.2396 14.04C93.2396 16.0458 93.1882 17.64 92.8282 19.2858C92.4682 20.9315 92.0567 21.96 91.4396 22.8343L90.9253 22.8343C89.5367 22.8343 88.8682 23.7086 88.8682 24.9429L88.8682 28.9029C88.8682 30.24 89.8453 31.0115 90.9767 31.0115C92.211 31.0115 93.0853 30.24 93.0853 28.9029L93.0853 27L106.148 27L106.148 28.9029C106.148 30.24 107.125 31.0115 108.257 31.0115C109.491 31.0115 110.365 30.24 110.365 28.9029L110.365 24.9429C110.468 23.7086 109.8 22.8343 108.36 22.8343ZM102.908 22.8343L95.8624 22.8343C96.3253 21.8572 96.6339 21.0343 96.9425 19.8C97.1996 18.4629 97.3539 17.1258 97.4053 15.3772L97.4567 13.32L102.96 13.32L102.96 22.8343L102.908 22.8343Z" fill="rgb(0,0,0)" fill-rule="nonzero" />
						<path id="Vector 99" d="M79.2511 8.94861C74.0568 8.94861 70.0454 12.8572 70.0454 18.1029C70.0454 23.3486 74.0054 27.2572 79.2511 27.2572C84.394 27.2572 88.4568 23.2972 88.4568 18.0515C88.4568 12.7543 84.4968 8.94861 79.2511 8.94861ZM79.2511 23.0915C76.3711 23.0915 74.3654 20.9829 74.3654 18.0515C74.3654 15.1715 76.4225 13.0629 79.2511 13.0629C82.1311 13.0629 84.1368 15.1715 84.1368 18.0515C84.1368 20.9829 82.234 23.0915 79.2511 23.0915Z" fill="rgb(0,0,0)" fill-rule="nonzero" />
						<path id="Vector 100" d="M66.9083 22.8343L65.7768 22.8343L65.7768 11.2115C65.7768 10.0286 65.0054 9.10291 63.6683 9.10291L53.7425 9.10291C52.5597 9.10291 51.7883 9.87433 51.7883 11.2115L51.7883 14.04C51.7883 16.0458 51.7883 17.64 51.3768 19.2858C51.0168 20.9315 50.6054 21.96 49.9883 22.8343L49.5254 22.8343C48.1368 22.8343 47.4683 23.7086 47.4683 24.9429L47.4683 28.9029C47.4683 30.24 48.4454 31.0115 49.5768 31.0115C50.8111 31.0115 51.6854 30.24 51.6854 28.9029L51.6854 27L64.7483 27L64.7483 28.9029C64.7483 30.24 65.7254 31.0115 66.8568 31.0115C68.0911 31.0115 68.9654 30.24 68.9654 28.9029L68.9654 24.9429C69.0683 23.7086 68.3997 22.8343 66.9083 22.8343ZM61.5083 22.8343L54.4626 22.8343C54.9254 21.8572 55.234 21.0343 55.5426 19.8C55.7997 18.4629 55.954 17.1258 56.0054 15.3772L56.0568 13.32L61.5597 13.32L61.5083 22.8343Z" fill="rgb(0,0,0)" fill-rule="nonzero" />
					</g>
				</g>
			</g>
		</g>
	</g>
</svg>
