<svg viewBox="0 0 48 48" xmlns="http://www.w3.org/2000/svg" xmlns:xlink="http://www.w3.org/1999/xlink" width="48.000000" height="48.000000" fill="none" customFrame="#000000">
	<mask id="mask_1" width="41.739128" height="2.641706" x="3.000000" y="45.225891" maskUnits="userSpaceOnUse">
		<g filter="url(#pixso_custom_mask_type_outline)">
			<g id="clip1_261_745">
				<rect id="Rectangle 103" width="41.739128" height="2.641706" x="3.000000" y="45.225891" fill="rgb(255,255,255)" />
			</g>
		</g>
	</mask>
	<mask id="mask_0" width="41.739128" height="47.550732" x="3.000000" y="0.316895" maskUnits="userSpaceOnUse">
		<g filter="url(#pixso_custom_mask_type_outline)">
			<g id="clip0_261_745">
				<rect id="Rectangle 104" width="41.739128" height="47.550732" x="3.000000" y="0.316895" fill="rgb(255,255,255)" />
			</g>
		</g>
	</mask>
	<defs>
		<clipPath id="clipPath_1">
			<rect width="41.739128" height="48.000000" x="3.000000" y="0.000000" fill="rgb(255,255,255)" />
		</clipPath>
		<filter id="pixso_custom_mask_type_outline">
			<feColorMatrix type="matrix" values="0 0 0 0 1 0 0 0 0 1 0 0 0 0 1 0 0 0 1 0 " />
		</filter>
	</defs>
	<rect id="Property 1=silovye-mashyny" width="48.000000" height="48.000000" x="0.000000" y="0.000000" fill="rgb(255,255,255)" fill-opacity="0" />
	<g id="silovye-mashiny 1" clip-path="url(#clipPath_1)" customFrame="url(#clipPath_1)">
		<rect id="silovye-mashiny 1" width="41.739128" height="48.000000" x="3.000000" y="0.000000" />
		<g id="clip path group" mask="url(#mask_0)">
			<g id="Group 108">
				<g id="clip path group" mask="url(#mask_1)">
					<g id="Group 110">
						<path id="Vector 583" d="M3.34338 45.2592L6.05505 47.8335L9.00702 47.8335L6.29533 45.2592L3.34338 45.2592Z" fill="rgb(227,30,36)" fill-rule="evenodd" />
						<path id="Vector 584" d="M29.1899 45.2592L31.9359 47.8335L34.9222 47.8335L32.2105 45.2592L29.1899 45.2592Z" fill="rgb(227,30,36)" fill-rule="evenodd" />
						<path id="Vector 585" d="M9.69287 45.2592L12.4389 47.8335L15.5281 47.8335L12.8165 45.2592L9.69287 45.2592Z" fill="rgb(227,30,36)" fill-rule="evenodd" />
						<path id="Vector 586" d="M22.7365 45.2592L25.4481 47.8335L28.503 47.8335L25.7914 45.2592L22.7365 45.2592Z" fill="rgb(227,30,36)" fill-rule="evenodd" />
						<path id="Vector 587" d="M44.7389 47.8335L44.7389 45.2592L41.9929 45.2592L44.7389 47.8335Z" fill="rgb(227,30,36)" fill-rule="evenodd" />
						<path id="Vector 588" d="M35.6086 45.2592L38.3547 47.8335L41.3066 47.8335L38.5949 45.2592L35.6086 45.2592Z" fill="rgb(227,30,36)" fill-rule="evenodd" />
						<path id="Vector 589" d="M16.2146 45.2592L18.9263 47.8335L22.0498 47.8335L19.3382 45.2592L16.2146 45.2592Z" fill="rgb(227,30,36)" fill-rule="evenodd" />
						<path id="Vector 590" d="M32.2102 45.2592L34.9219 47.8335L38.3544 47.8335L35.6084 45.2592L32.2102 45.2592Z" fill="rgb(227,30,36)" fill-rule="evenodd" />
						<path id="Vector 591" d="M25.7915 45.2592L28.5032 47.8335L31.9357 47.8335L29.1897 45.2592L25.7915 45.2592Z" fill="rgb(227,30,36)" fill-rule="evenodd" />
						<path id="Vector 592" d="M19.339 45.2592L22.0507 47.8335L25.4488 47.8335L22.7372 45.2592L19.339 45.2592Z" fill="rgb(227,30,36)" fill-rule="evenodd" />
						<path id="Vector 593" d="M12.8173 45.2592L15.5289 47.8335L18.9271 47.8335L16.2155 45.2592L12.8173 45.2592Z" fill="rgb(227,30,36)" fill-rule="evenodd" />
						<path id="Vector 594" d="M6.29553 45.2592L9.00721 47.8335L12.4397 47.8335L9.69372 45.2592L6.29553 45.2592Z" fill="rgb(227,30,36)" fill-rule="evenodd" />
						<path id="Vector 595" d="M3 45.2592L3 47.8335L6.05492 47.8335L3.34325 45.2592L3 45.2592Z" fill="rgb(227,30,36)" fill-rule="evenodd" />
						<path id="Vector 596" d="M38.5955 45.2592L41.3071 47.8335L44.7396 47.8335L41.9936 45.2592L38.5955 45.2592Z" fill="rgb(227,30,36)" fill-rule="evenodd" />
					</g>
				</g>
				<path id="Vector 597" d="M33.4391 0.316895L3 0.316895L3 42.5842L44.7391 42.5842L44.7391 11.7599L33.4391 0.316895Z" fill="rgb(0,125,143)" fill-rule="nonzero" />
				<path id="Vector 598" d="M29.0999 15.2909C29.087 15.2779 29.0741 15.2648 29.0483 15.2517L29.2936 14.9378L31.9281 15.7356L32.1348 15.6964L32.2123 15.5394L32.1735 15.3302L29.7327 14.2185L30.0556 13.5908L30.6626 13.6431L33.1034 13.787L33.1163 13.5516L32.8709 13.4078L30.3526 13.0546L30.4818 12.4138L33.6329 12.0738L33.6329 11.7992L33.1034 11.6161L30.6496 11.9169L30.7013 11.3415L33.7491 10.5437L33.7104 10.3214L33.2842 10.0206L30.7013 10.9622L30.6367 10.5306L33.5037 9.28826L33.2067 8.73898L30.5205 10.1514L30.4172 9.85059L33.0129 8.39896L32.7676 7.81044L30.1718 9.47134L30.0943 9.3013L32.2898 7.74506L32.0832 7.11736L31.9281 7.22197L29.8231 8.85668L29.7457 8.76511L31.4245 7.32657L31.2824 6.68577L29.4486 8.47743L29.3066 8.38586L30.5076 7.15659L30.3397 6.55497L28.9191 8.18969L28.6996 8.16355L29.5132 7.18273L29.3453 6.54193L28.2863 8.12431L28.0668 8.12431L28.5446 7.32657L28.3897 6.72501L27.6148 8.13741L27.3307 8.18969L27.5631 7.49661L27.3823 7.03889L26.9174 8.28125L26.5429 8.37282L26.5816 7.7843L26.4008 7.47042L26.1425 8.5428L25.6518 8.73898L25.6131 8.20278L25.4581 8.05894L25.3548 8.90901L24.8253 9.24903L24.722 8.84358L24.5928 8.63437L24.5412 9.34054L24.0117 9.75903L23.96 9.52362L23.7017 9.3275L23.7017 9.98134L23.3272 10.256L22.8365 9.92906L22.8881 10.7268L22.7073 10.9099L22.0229 10.6614L22.1133 11.4984L21.2351 11.4592L21.3513 11.8515C16.0694 10.5437 11.304 11.5114 9.19895 14.8071C6.06075 19.6982 9.8963 27.8848 17.7353 33.0244C25.5614 38.177 34.4981 38.3863 37.6363 33.4952C40.7616 28.6172 36.926 20.4305 29.0999 15.2909ZM30.1202 29.4803L29.539 29.4803L29.539 27.7802L28.9966 27.7802L28.9966 31.6643L29.539 31.6643L29.539 30.0165L30.1202 30.0165L30.1202 31.6643L30.6755 31.6643L30.6755 27.7802L30.1202 27.7802L30.1202 29.4803ZM27.9118 29.1403L27.3048 29.7811L27.3048 27.7802L26.7753 27.7802L26.7753 31.6643L27.3048 31.6643L27.3048 30.4088L27.9118 29.768L27.9118 31.6643L28.4284 31.6643L28.4284 27.7802L27.9118 27.7802L27.9118 29.1403ZM31.7603 30.0557L31.7603 27.7802L31.2179 27.7802L31.2179 31.6904L32.8451 31.6904L32.8451 30.0557L31.7603 30.0557ZM32.3027 31.1542L31.7603 31.1542L31.7603 30.5919L32.3027 30.5919L32.3027 31.1542ZM32.3285 29.4803L32.8709 29.4803L32.8709 27.8064L32.3285 27.8064L32.3285 29.4803ZM25.6389 27.7802L25.6389 31.115L25.0965 31.115L25.0965 27.7802L24.5541 27.7802L24.5541 31.115L24.0117 31.115L24.0117 27.7802L23.4564 27.7802L23.4564 31.6643L26.1813 31.6643L26.1813 27.7802L25.6389 27.7802ZM19.0655 28.3425L19.0655 27.7279L18.4843 27.7279L18.4843 28.2772L17.9549 28.2772L17.9549 31.6643L18.5102 31.6643L18.4973 28.3425L19.0655 28.3425ZM19.595 28.3556L19.0397 28.3556L19.0397 31.6643L19.595 31.6643L19.595 28.3687L20.1245 28.3687L20.1245 31.6643L20.6798 31.6643L20.6798 27.7933L19.595 27.7933L19.595 28.3556ZM21.7904 27.7802L21.7904 28.3294L21.2351 28.3294L21.2351 31.6643L21.7904 31.6643L21.7904 30.0034L22.3328 30.0034L22.3328 31.6643L22.8752 31.6643L22.8752 27.7802L21.7904 27.7802ZM22.3328 29.4672L21.7904 29.4672L21.7904 28.3556L22.3328 28.3556L22.3328 29.4672ZM31.2179 26.6816L32.8193 26.6816L32.8193 26.3024L32.8193 26.0801L32.8193 25.5831L32.2769 25.5831L32.2769 26.0801L31.7086 26.0801L31.7086 24.9816L32.3156 24.9816L32.3156 24.4715L31.7086 24.4715L31.7086 23.3468L32.3156 23.3468L32.3156 23.883L32.8709 23.883L32.858 22.7714L31.2179 22.7714L31.2179 26.6816ZM28.4284 26.6686L28.4284 25.0469L27.3436 25.0469L27.3436 24.4061L28.4284 24.4061L28.4284 22.7583L26.7883 22.7583L26.7883 26.6686L27.3436 26.6686L28.4284 26.6686ZM27.3436 23.2945L27.886 23.2945L27.886 23.8699L27.3436 23.8699L27.3436 23.2945ZM27.3436 25.5701L27.886 25.5701L27.886 26.1455L27.3436 26.1455L27.3436 25.5701ZM30.6238 26.5509L30.6238 25.0339L30.598 25.0339L29.539 25.0339L29.539 22.7583L28.9966 22.7583L28.9966 26.6686L30.6238 26.6686L30.6238 26.5509ZM30.0814 26.1324L29.539 26.1324L29.539 25.557L30.0814 25.557L30.0814 26.1324ZM30.6496 22.7714L30.1072 22.7714L30.1072 24.4323L30.6496 24.4323L30.6496 22.7714ZM24.567 26.6686L26.2071 26.6686L26.2071 22.7583L24.567 22.7714L24.567 26.6686ZM25.1223 23.2684L25.6647 23.2684L25.6647 26.1324L25.1223 26.1324L25.1223 23.2684ZM23.9859 26.6686L23.9859 23.373L23.9859 22.7583L22.9011 22.7583L22.9011 23.3207L22.3457 23.3207L22.3457 26.6686L22.9011 26.6686L22.9011 23.3337L23.4435 23.3337L23.4435 26.6686L23.9859 26.6686ZM21.2868 26.6686L21.8162 26.6686L21.8162 22.7583L21.2868 22.7583L21.2868 24.1577L20.6798 24.7854L20.6798 22.7583L20.1632 22.7583L20.1632 26.6686L20.6798 26.6686L20.6798 25.4262L21.2868 24.7854L21.2868 26.6686ZM19.5821 25.5962L19.0397 25.5962L19.0397 26.0801L18.4843 26.0801L18.4843 23.3468L19.0784 23.3468L19.0784 23.883L19.6337 23.883L19.6337 22.7714L17.9807 22.7714L17.9807 26.6816L19.5821 26.6816L19.5821 25.5962ZM23.1723 11.6684C25.4064 9.39287 28.0539 8.38586 29.087 9.41901C29.9652 10.3083 29.3582 12.44 27.7568 14.467C26.0651 13.4862 24.3604 12.7408 22.6686 12.2177C22.8365 12.0346 23.0044 11.8515 23.1723 11.6684ZM27.4727 14.794C27.2919 15.0032 27.1111 15.2125 26.9045 15.4217C24.6832 17.6841 22.0358 18.7042 21.0026 17.6711C20.0986 16.7687 20.7444 14.5847 22.4103 12.5315C24.0892 13.0285 25.8068 13.787 27.4727 14.794ZM35.8154 31.8866C32.9226 36.3985 24.8253 36.3069 17.7999 31.6904C10.7616 27.0609 7.39093 19.6066 10.2837 15.0947C12.2209 12.0738 16.5085 11.1191 21.2351 12.2177L20.6023 12.3092L20.7314 12.9631L19.9049 13.1985L20.0728 13.8001L19.3367 14.1401L19.5046 14.7417L18.833 15.134L19.0526 15.6833L18.4069 16.1541L18.6909 16.6772L18.0969 17.1741L18.4585 17.6841L17.9419 18.1811L18.4069 18.7173L18.0324 19.175L18.5102 19.7374L18.2648 20.1428L18.9363 20.6266L18.7555 20.9274L19.6466 21.4113L19.595 21.529L20.8089 22.0914L20.9381 21.9083L22.0358 22.3398L22.2424 21.8952L23.6243 22.196L23.8955 21.1106L23.9342 21.3329L25.3935 21.6337L25.5098 19.502L25.8972 20.4697C26.3879 20.6659 26.8528 20.7182 27.3048 20.6266L26.827 17.7757L27.3823 18.4165L27.9247 19.0704L28.9062 19.3189L29.087 19.2535L29.2033 19.0965L27.8473 16.5595L28.1185 16.3764L30.146 17.5403L30.7013 17.5926L30.8563 17.4226L30.8175 17.2787L30.3526 16.8079C35.9574 21.4244 38.4112 27.8325 35.8154 31.8866Z" fill="rgb(254,254,254)" fill-rule="evenodd" />
			</g>
		</g>
	</g>
</svg>
