<svg viewBox="0 0 152 32" xmlns="http://www.w3.org/2000/svg" xmlns:xlink="http://www.w3.org/1999/xlink" width="152.000000" height="32.000000" fill="none">
	<rect id="logo 1" width="152.000000" height="32.000000" x="0.000000" y="0.000000" />
	<path id="Vector 18" d="M139.659 0.506L139.659 8.83C139.659 9.03981 139.761 9.12181 139.966 9.076C140.017 9.06409 140.059 9.03875 140.094 9C141.52 7.435 143.205 6.95 144.953 6.95C149.758 6.95 151.884 10.252 151.884 15.292L151.884 23.822C151.885 23.9614 151.836 24.0807 151.738 24.18C151.641 24.2784 151.523 24.3278 151.385 24.328L148.196 24.328C148.057 24.3279 147.939 24.2786 147.842 24.18C147.744 24.0808 147.695 23.9614 147.694 23.822L147.694 15.326C147.694 12.198 146.08 10.878 143.849 10.878C141.377 10.878 139.659 12.998 139.659 15.57L139.659 23.822C139.658 24.1541 139.492 24.3228 139.16 24.328L135.97 24.328C135.832 24.3279 135.714 24.2785 135.617 24.18C135.519 24.0808 135.47 23.9614 135.469 23.822L135.469 0.506C135.47 0.366802 135.519 0.247469 135.616 0.148C135.714 0.0499794 135.832 0.000646029 135.97 0L139.16 0C139.292 0 139.419 0.053 139.513 0.148C139.611 0.247262 139.66 0.366596 139.659 0.506L139.659 0.506ZM111.367 2.92L111.367 6.976C111.369 7.043 111.396 7.106 111.443 7.152C111.491 7.20008 111.55 7.22408 111.618 7.224L115.538 7.224C115.677 7.22333 115.795 7.27233 115.892 7.371C115.989 7.47047 116.038 7.5898 116.039 7.729L116.039 10.372C116.039 10.5114 115.99 10.6308 115.892 10.73C115.795 10.8289 115.677 10.8785 115.538 10.879L111.589 10.879C111.418 10.877 111.334 10.9613 111.335 11.132L111.335 18.281C111.335 19.915 112.228 20.714 113.534 20.714C114.067 20.7026 114.583 20.6002 115.08 20.407C115.408 20.2828 115.624 20.3878 115.73 20.722L116.579 23.348C116.677 23.6545 116.576 23.8661 116.276 23.983C115.302 24.3387 114.297 24.524 113.261 24.539C109.586 24.678 107.186 22.559 107.186 18.282L107.186 11.132C107.186 11.0186 107.134 10.9403 107.029 10.897C106.998 10.8843 106.965 10.8783 106.931 10.879L104.518 10.879C104.187 10.8725 104.02 10.7035 104.018 10.372L104.018 7.735C104.018 7.59487 104.066 7.47421 104.163 7.373C104.26 7.27251 104.378 7.22251 104.518 7.223L106.931 7.223C107.097 7.21974 107.18 7.13507 107.18 6.969L107.18 3.269C107.181 3.13886 107.225 3.02552 107.312 2.929C107.399 2.83254 107.507 2.77821 107.636 2.766L110.825 2.423C111.062 2.40133 111.228 2.49967 111.323 2.718C111.351 2.78201 111.366 2.84901 111.367 2.919L111.367 2.92ZM101.018 7.195L97.9721 7.195C97.8385 7.19454 97.7235 7.24054 97.6271 7.333C97.5303 7.42617 97.4786 7.53984 97.4721 7.674L97.3891 9.097C97.382 9.16473 97.346 9.20873 97.2811 9.229C97.2161 9.2488 97.1624 9.23213 97.12 9.179C96.07 7.702 94.063 6.779 91.97 6.779C87.025 6.746 83.143 9.839 83.143 15.748C83.143 21.761 86.855 24.888 91.867 24.853C93.619 24.821 96.022 23.981 97.129 22.249C97.1693 22.1936 97.2226 22.1743 97.289 22.191C97.3564 22.208 97.394 22.251 97.402 22.32L97.53 23.868C97.5413 23.9979 97.5946 24.1072 97.69 24.196C97.7853 24.2847 97.8979 24.329 98.028 24.329L101.018 24.329C101.151 24.329 101.278 24.276 101.371 24.181C101.469 24.0819 101.518 23.9625 101.518 23.823L101.518 7.7C101.516 7.36855 101.349 7.20021 101.018 7.195L101.018 7.195ZM92.3531 20.958C89.5731 20.958 87.341 19.011 87.341 15.745C87.341 12.477 89.566 10.565 92.3531 10.565C98.9451 10.565 98.9451 20.958 92.3531 20.958ZM4.42305 25.866C5.32905 27.456 6.95505 28.511 9.22305 28.511C10.143 28.5072 10.9993 28.2719 11.7921 27.805C12.588 27.3357 13.2137 26.699 13.6691 25.895C13.7388 25.7687 13.8435 25.6874 13.9831 25.651C14.1227 25.6151 14.2531 25.6365 14.3741 25.715L16.4821 27.083C16.7617 27.2646 16.8124 27.4963 16.6341 27.778C15.0951 30.265 12.4741 32 9.03106 32C7.48948 31.9973 6.04215 31.6266 4.68906 30.888C3.33043 30.1461 2.22843 29.1268 1.38306 27.83C1.20165 27.5457 1.25231 27.3117 1.53506 27.128L3.72406 25.7C4.01617 25.5075 4.24951 25.5628 4.42406 25.866L4.42305 25.866ZM133.304 21.94C133.278 21.8755 133.24 21.8189 133.19 21.77L131.088 19.695C130.87 19.484 130.645 19.4766 130.414 19.673C129.437 20.48 128.241 20.788 127.042 20.788C124.433 20.788 122.236 19.051 122.236 15.783C122.236 12.795 124.295 10.711 127.112 10.711C128.248 10.724 129.265 11.0787 130.162 11.775C130.4 11.9623 130.623 11.9456 130.831 11.725L132.806 9.62C132.905 9.51664 132.95 9.39364 132.943 9.251C132.938 9.10891 132.883 8.98991 132.778 8.894C131.047 7.319 129.282 6.714 127.039 6.714C122.129 6.714 118.043 9.703 118.043 15.782C118.043 21.86 122.129 24.85 127.039 24.85C129.38 24.85 131.334 24.183 133.176 22.51C133.285 22.4116 133.34 22.2889 133.341 22.142C133.342 22.0722 133.33 22.0048 133.304 21.94L133.304 21.94ZM24.3141 17.3C24.3481 17.2831 24.3841 17.2745 24.4221 17.274L36.8781 17.276C37.0107 17.2755 37.125 17.2295 37.2211 17.138C37.3173 17.0461 37.3696 16.9338 37.3781 16.801C37.8311 10.056 34.3281 6.675 28.7881 6.675C23.2951 6.675 19.7921 10.428 19.7921 15.642C19.7921 21.132 23.2601 24.782 29.0981 24.782C31.4991 24.782 34.2001 23.997 36.0011 22.369C36.1754 22.2104 36.217 22.0224 36.1261 21.805C36.1 21.7409 36.0623 21.6846 36.0131 21.636L34.0391 19.658C33.831 19.4496 33.6117 19.437 33.3811 19.62C32.3381 20.448 30.5621 20.924 29.1731 20.924C26.3651 20.924 24.5801 19.541 24.1761 17.581C24.1495 17.4515 24.1955 17.3575 24.3141 17.299L24.3141 17.3ZM33.1431 13.739C33.1089 13.7555 33.0729 13.7639 33.0351 13.764L24.5381 13.762C24.4507 13.7621 24.3824 13.7261 24.3331 13.654C24.2826 13.5822 24.2719 13.5048 24.3011 13.422C25.0071 11.424 26.7851 10.425 28.9331 10.425C31.2241 10.425 32.8921 11.435 33.2811 13.456C33.3082 13.586 33.2622 13.6803 33.1431 13.739ZM46.1101 2.92L46.1101 6.976C46.112 7.14068 46.1954 7.22301 46.3601 7.223L50.2841 7.223C50.51 7.22147 50.6643 7.3258 50.7471 7.536C50.7724 7.59784 50.785 7.66218 50.7851 7.729L50.7851 10.371C50.7858 10.511 50.7372 10.631 50.6391 10.731C50.5414 10.8299 50.423 10.8792 50.2841 10.879L46.3361 10.879C46.2668 10.8792 46.2078 10.9038 46.1591 10.953C46.1096 11.0028 46.085 11.0628 46.0851 11.133L46.0851 18.281C46.0851 19.915 46.9781 20.714 48.2831 20.714C48.8165 20.7028 49.3318 20.6005 49.8291 20.407C50.0451 20.324 50.2284 20.3703 50.3791 20.546C50.4242 20.5976 50.4576 20.6559 50.4791 20.721L51.3281 23.348C51.4279 23.656 51.3265 23.8676 51.0241 23.983C50.0495 24.3391 49.0435 24.5241 48.0061 24.538C44.333 24.676 41.932 22.557 41.932 18.281L41.932 11.132C41.9319 11.0622 41.9072 11.0025 41.858 10.953C41.8093 10.9037 41.7503 10.879 41.681 10.879L39.2611 10.879C39.1223 10.8787 39.0043 10.829 38.9071 10.73C38.8092 10.6303 38.7606 10.5107 38.7611 10.371L38.7611 7.736C38.7618 7.51208 38.8652 7.35608 39.0711 7.268C39.1319 7.24267 39.1952 7.23 39.2611 7.23L41.6711 7.23C41.7371 7.23 41.8011 7.203 41.848 7.156C41.8971 7.10602 41.9214 7.04602 41.9211 6.976L41.9211 3.271C41.9205 3.1414 41.9632 3.02807 42.049 2.931C42.1343 2.83529 42.2406 2.78062 42.368 2.767L45.557 2.424C45.7983 2.39622 45.9676 2.49355 46.065 2.716C46.094 2.78092 46.1087 2.84892 46.109 2.92L46.1101 2.92ZM65.4911 24.18C65.5851 24.276 65.7121 24.329 65.845 24.329L69.041 24.329C69.174 24.329 69.301 24.276 69.395 24.181C69.4934 24.0819 69.5427 23.9626 69.543 23.823L69.543 15.153C69.543 12.893 70.953 10.914 73.216 10.914C75.479 10.914 76.406 12.824 76.406 15.084L76.406 23.824C76.3999 24.1621 76.5659 24.3307 76.904 24.33L80.093 24.33C80.4245 24.3242 80.5915 24.1555 80.594 23.824L80.594 15.09C80.594 9.946 78.224 6.958 73.417 6.958C71.337 6.958 69.47 7.58 67.995 9.711C67.9407 9.78915 67.866 9.82482 67.771 9.818C67.675 9.811 67.6063 9.764 67.565 9.677C66.5461 7.625 64.64 6.887 62.7351 6.887C61.2421 6.887 59.4481 7.419 58.4841 8.885C58.4447 8.93929 58.3924 8.95895 58.327 8.944C58.2612 8.92875 58.2228 8.88775 58.212 8.821L58.03 7.591C58.0117 7.46663 57.9551 7.3633 57.8601 7.281C57.7655 7.19861 57.6555 7.15794 57.53 7.159L54.58 7.159C54.3551 7.15838 54.2015 7.26272 54.119 7.472C54.0936 7.53417 54.081 7.59884 54.0811 7.666L54.0811 23.823C54.0811 23.957 54.1341 24.086 54.2271 24.181C54.3211 24.276 54.4481 24.329 54.5811 24.329L57.7701 24.329C57.9021 24.329 58.03 24.276 58.1231 24.181C58.2207 24.0816 58.2694 23.9623 58.2691 23.823L58.2691 15.153C58.2691 12.9 59.6091 10.85 61.876 10.85C64.177 10.85 65.345 12.894 65.345 15.153L65.345 23.823C65.345 23.957 65.398 24.086 65.4911 24.181L65.4911 24.18ZM16.0711 9.838L17.3211 8.227C17.4623 8.04703 17.4757 7.85803 17.3611 7.66C17.3275 7.60118 17.2838 7.55118 17.2301 7.51L14.9361 5.76C14.6747 5.55881 14.4434 5.58881 14.2421 5.85L13.0271 7.417C12.9452 7.52142 12.8442 7.54542 12.7241 7.489C10.6524 6.53417 8.52778 6.39617 6.35005 7.075C4.16581 7.75918 2.48581 9.08318 1.31005 11.047C0.127383 13.0189 -0.261283 15.1366 0.144056 17.4C0.545579 19.6614 1.64425 21.5081 3.44006 22.94C5.22568 24.3628 7.25802 25.0058 9.53706 24.869C11.817 24.7287 13.7587 23.845 15.3621 22.218C16.9752 20.5814 17.8485 18.6161 17.9821 16.322C18.1191 14.0265 17.4834 11.9698 16.0751 10.152C15.9917 10.0481 15.9908 9.94345 16.0721 9.838L16.0711 9.838ZM9.00606 20.943C7.97116 20.943 7.02516 20.653 6.16806 20.073C5.30665 19.4895 4.67932 18.7162 4.28606 17.753C3.89121 16.7866 3.79454 15.7913 3.99606 14.767C4.19596 13.7444 4.66163 12.8621 5.39305 12.12C6.12065 11.3821 6.99232 10.9104 8.00806 10.705C8.99806 10.505 10.0251 10.607 10.9581 10.998C11.9155 11.4001 12.6798 12.0348 13.2511 12.902C13.8121 13.752 14.1111 14.752 14.1111 15.774C14.1128 17.1969 13.6144 18.4152 12.6161 19.429C11.6236 20.4366 10.4203 20.9412 9.00606 20.943ZM9.10206 14.763C9.30403 14.7426 9.48936 14.6759 9.65806 14.563C9.92906 14.38 10.1181 14.096 10.1851 13.773C10.2008 13.6761 10.2544 13.6101 10.3461 13.575C10.438 13.5406 10.5214 13.5552 10.5961 13.619C10.8933 13.878 11.1165 14.19 11.2659 14.5549C11.4152 14.9198 11.4747 15.2988 11.4443 15.6919C11.414 16.0849 11.2971 16.4503 11.0935 16.788C10.89 17.1256 10.6215 17.3996 10.2881 17.61C9.4385 18.1392 8.5875 18.1415 7.73506 17.617C7.3419 17.374 7.0409 17.0463 6.83206 16.634C6.57751 16.1319 6.5012 15.604 6.60313 15.0503C6.70506 14.4967 6.96437 14.0306 7.38106 13.652C7.45299 13.5907 7.53344 13.576 7.62242 13.6078C7.7114 13.6396 7.76428 13.702 7.78106 13.795C7.87444 14.2169 8.12044 14.5112 8.51906 14.678C8.70406 14.754 8.90406 14.783 9.10206 14.763L9.10206 14.763Z" fill="rgb(0,0,0)" fill-rule="evenodd" />
</svg>
