<svg viewBox="0 0 48 48" xmlns="http://www.w3.org/2000/svg" xmlns:xlink="http://www.w3.org/1999/xlink" width="48.000000" height="48.000000" fill="none" customFrame="#000000">
	<defs>
		<clipPath id="clipPath_0">
			<rect width="48.000000" height="32.556110" x="0.000000" y="7.000000" fill="rgb(255,255,255)" />
		</clipPath>
	</defs>
	<rect id="Property 1=globus" width="48.000000" height="48.000000" x="0.000000" y="0.000000" fill="rgb(255,255,255)" fill-opacity="0" />
	<g id="globus 1" clip-path="url(#clipPath_0)" customFrame="url(#clipPath_0)">
		<rect id="globus 1" width="48.000000" height="32.556110" x="0.000000" y="7.000000" />
		<path id="Vector 574" d="M47.6526 17.8704C47.5015 17.6845 47.3184 17.527 47.1119 17.4055C46.9055 17.284 46.6789 17.2003 46.443 17.1586C45.6456 17.0467 43.4514 16.9095 41.9764 16.8856C41.68 16.8976 41.3909 16.9812 41.1338 17.1292C40.8767 17.2772 40.6592 17.4852 40.5 17.7355C40.3407 17.9858 40.2444 18.2709 40.2193 18.5665C40.1911 18.8152 39.625 22.4024 39.4891 23.6742C39.4417 23.9615 39.4823 24.2565 39.6055 24.5204C39.7288 24.7842 39.9289 25.0047 40.1796 25.1528C40.4304 25.3009 40.72 25.3698 41.0106 25.3504C41.0106 25.3504 43.0089 25.3454 43.7868 25.3288C43.6965 25.8496 43.5604 26.6128 43.4851 27.0152C43.0098 27.0415 42.5348 27.0661 42.0603 27.089C42.0731 27.008 42.0813 26.9265 42.085 26.8446C42.0936 26.6699 42.0556 26.4961 41.9748 26.341C41.8941 26.1859 41.7735 26.055 41.6255 25.9619C41.4775 25.8687 41.3073 25.8167 41.1325 25.811L39.2195 25.8731C39.1879 25.8747 39.1571 25.8835 39.1295 25.899C39.1019 25.9145 39.0782 25.9362 39.0604 25.9623C39.0426 25.9885 39.031 26.0184 39.0267 26.0498C38.8838 26.9227 38.7361 27.797 38.5836 28.6725C38.5326 28.9045 38.5303 29.1446 38.5768 29.3776C38.6233 29.6105 38.7176 29.8313 38.8538 30.026C38.9762 30.1911 39.1364 30.3246 39.3211 30.415C39.5057 30.5054 39.7093 30.5503 39.9149 30.5457C39.9449 30.5457 42.4386 30.4166 44.5436 30.1785C45.0047 30.0797 45.4289 29.8537 45.7681 29.5261C46.1073 29.1984 46.3479 28.7822 46.4625 28.3248C46.8479 26.8419 47.1177 25.3313 47.2696 23.8066C47.3169 23.5806 47.3126 23.3468 47.2571 23.1227C47.2016 22.8985 47.0963 22.6897 46.949 22.5119C46.8106 22.3436 46.6362 22.2087 46.4386 22.117C46.241 22.0253 46.0253 21.9793 45.8074 21.9823L42.9584 21.9823C42.9943 21.7651 43.2123 20.476 43.2512 20.2222C43.618 20.2296 44.6466 20.2565 44.6466 20.2565C44.6275 20.338 44.6206 20.4219 44.6259 20.5054C44.6312 20.6829 44.6807 20.8562 44.7698 21.0097C44.859 21.1633 44.985 21.2922 45.1364 21.3848C45.2879 21.4773 45.4601 21.5307 45.6373 21.5401C46.2399 21.5448 46.8418 21.5529 47.4547 21.5611C47.4877 21.5617 47.5205 21.5542 47.5499 21.5392C47.5794 21.5242 47.6047 21.5021 47.6236 21.475C47.6425 21.4478 47.6544 21.4164 47.6582 21.3836C47.7758 20.6462 47.8871 19.8776 47.9939 19.0972C48.0237 18.8802 48.0088 18.6595 47.9501 18.4485C47.8914 18.2375 47.7901 18.0408 47.6526 17.8704ZM38.9544 29.0389C38.9544 29.046 38.9562 29.0522 38.9562 29.0593C38.9562 29.0522 38.9544 29.046 38.9544 29.0389Z" fill="rgb(177,66,0)" fill-rule="nonzero" />
		<path id="Vector 575" d="M13.5424 14.1654C13.4168 13.9874 13.2472 13.8448 13.0502 13.7516C12.8532 13.6583 12.6355 13.6176 12.4181 13.6334C11.9825 13.6556 11.549 13.6795 11.1133 13.7053C11.084 13.7071 11.0554 13.7155 11.0298 13.7299C11.0042 13.7443 10.9821 13.7642 10.9653 13.7883C10.9485 13.8124 10.9373 13.84 10.9327 13.869C9.9705 19.2315 9.2666 24.0643 8.77959 28.6447C8.74881 28.8883 8.7653 29.1356 8.82817 29.3729C8.89104 29.6103 8.9991 29.8333 9.14644 30.0298C9.28008 30.2102 9.45124 30.3594 9.64813 30.4673C9.84501 30.5751 10.0629 30.639 10.2869 30.6546C10.7221 30.6818 11.1577 30.7057 11.5929 30.7294L11.6038 30.7294C11.6363 30.7289 11.6682 30.7205 11.6967 30.7048C11.7252 30.6891 11.7494 30.6667 11.7672 30.6395C11.785 30.6124 11.7959 30.5812 11.7989 30.5488C12.2584 25.9679 12.922 21.0697 13.8231 15.5683C13.8717 15.3275 13.8719 15.0795 13.8237 14.8386C13.7755 14.5978 13.6799 14.3689 13.5424 14.1654ZM9.16275 28.9806C9.16275 28.9833 9.16275 28.9862 9.16275 28.9888C9.16258 28.9862 9.16309 28.9834 9.16287 28.9807L9.16275 28.9806Z" fill="rgb(177,66,0)" fill-rule="nonzero" />
		<path id="Vector 576" d="M6.87137 21.5406L8.74288 21.5273C8.77493 21.5264 8.8063 21.5179 8.8345 21.5027C8.86269 21.4874 8.88691 21.4657 8.90523 21.4394C8.92354 21.4131 8.93544 21.3829 8.93997 21.3511C9.07226 20.4852 9.21324 19.6135 9.35609 18.7394C9.40392 18.4982 9.40228 18.2497 9.35128 18.0092C9.30028 17.7686 9.20098 17.5408 9.05939 17.3397C8.92575 17.1658 8.75212 17.0267 8.55323 16.9342C8.35435 16.8417 8.13609 16.7985 7.91696 16.8083C6.77419 16.8083 4.82592 16.8888 3.30648 17.0417C2.81698 17.114 2.35851 17.3252 1.98554 17.6504C1.61257 17.9755 1.3408 18.4009 1.2025 18.876C0.633837 21.9419 0.229622 25.0361 -0.00839243 28.1452C-0.0172506 28.3943 0.0132914 28.6433 0.0821037 28.8829C0.150916 29.1225 0.257136 29.3497 0.396838 29.5562C0.559289 29.7206 0.749637 29.8548 0.959019 29.9527C1.1684 30.0505 1.39349 30.1104 1.62382 30.1295C3.12548 30.3606 4.64037 30.4955 6.15923 30.5334L6.2348 30.5334C7.20465 30.5221 7.74431 30.0079 7.92898 28.9159C8.17122 27.4767 8.63288 23.5578 8.67121 23.2444C8.70467 23.0928 8.70564 22.9358 8.67407 22.7839C8.64249 22.6319 8.57908 22.4883 8.48801 22.3626C8.38066 22.2489 8.24895 22.1609 8.10276 22.1053C7.95656 22.0497 7.79966 22.0279 7.64385 22.0416L4.68381 22.0449C4.65137 22.0458 4.6196 22.0543 4.59104 22.0697C4.56247 22.0851 4.53791 22.107 4.51931 22.1336C4.50071 22.1602 4.48858 22.1908 4.4839 22.2229C4.4839 22.2229 4.29241 23.4614 4.21147 24.0402C4.19069 24.1966 4.20218 24.3556 4.24523 24.5074C4.28828 24.6592 4.36198 24.8005 4.46178 24.9227C4.54295 25.0269 4.64546 25.1125 4.76244 25.1739C4.87941 25.2352 5.00814 25.2708 5.14 25.2783L5.28449 25.282C5.25294 25.4816 5.03757 26.6636 4.95528 27.1393C4.6237 27.1223 3.48691 27.0546 3.28565 27.0416C3.4053 25.868 4.0723 21.227 4.24624 20.2502C4.55135 20.2452 5.67352 20.2341 5.89425 20.2292C5.87427 20.3632 5.86677 20.4828 5.86677 20.4828C5.86464 20.6632 5.90916 20.841 5.99602 20.9991C6.08288 21.1571 6.20912 21.29 6.36249 21.3849C6.51586 21.4798 6.69116 21.5335 6.87137 21.5406ZM0.616215 29.139C0.541315 29.0014 0.487331 28.8534 0.456042 28.6998C0.487331 28.8534 0.541315 29.0014 0.616215 29.139Z" fill="rgb(177,66,0)" fill-rule="nonzero" />
		<path id="Vector 577" d="M30.2946 17.0807C30.1655 16.8971 29.9949 16.7466 29.7966 16.6416C29.5983 16.5365 29.3779 16.4799 29.1535 16.4763C28.1884 16.4625 27.2264 16.4517 26.2621 16.4444C26.2999 16.1577 26.4018 15.3785 26.4018 15.3785C26.4403 15.1286 26.4317 14.8736 26.3763 14.6268C26.321 14.38 26.2199 14.1457 26.0783 13.9361C25.9524 13.7514 25.7835 13.6001 25.5862 13.4953C25.3888 13.3904 25.1689 13.3351 24.9454 13.3342C24.637 13.3333 23.642 13.3333 23.642 13.3333C23.6104 13.3339 23.5794 13.3421 23.5516 13.3572C23.5238 13.3722 23.5 13.3937 23.4822 13.4198C23.4644 13.446 23.4531 13.476 23.4492 13.5074C23.2228 15.1968 21.8095 25.5463 21.361 29.0449C21.3244 29.2899 21.3338 29.5396 21.3888 29.7811C21.4439 30.0226 21.5435 30.2517 21.6827 30.4566C21.812 30.644 21.9844 30.7976 22.1855 30.9046C22.3865 31.0115 22.6103 31.0686 22.838 31.071C23.2064 31.0722 26.2178 31.0642 27.3249 31.0472C27.6337 31.0123 27.9304 30.9075 28.1927 30.7408C28.4549 30.574 28.6757 30.3497 28.8383 30.0849C29.0008 29.8201 29.1009 29.5216 29.1309 29.2123C29.7438 25.0857 30.2184 21.6867 30.6258 18.5149C30.6644 18.2657 30.6551 18.0115 30.5983 17.7659C30.5416 17.5202 30.4385 17.2877 30.2946 17.0807ZM26.2552 27.5545C25.7576 27.5573 25.2599 27.5591 24.7619 27.5598C24.7619 27.5598 25.6945 20.7307 25.7978 19.95C26.2845 19.9518 27.3014 19.9548 27.3014 19.9548C27.1291 21.2727 26.4076 26.4733 26.2552 27.5545ZM24.3879 27.8988C24.3804 27.8872 24.374 27.8748 24.3689 27.8619C24.374 27.8748 24.3803 27.8871 24.3879 27.8986L24.3879 27.8988Z" fill="rgb(177,66,0)" fill-rule="nonzero" />
		<path id="Vector 578" d="M39.4929 16.8452C39.4754 16.8243 39.4538 16.8072 39.4295 16.7948C39.4052 16.7824 39.3787 16.775 39.3515 16.773L37.8647 16.7124C37.5682 16.7314 37.2806 16.8214 37.0261 16.9747C36.7716 17.1281 36.5578 17.3404 36.4025 17.5938C36.2473 17.8471 36.1552 18.1341 36.134 18.4304C35.7857 21.2664 35.3674 24.1872 34.8593 27.3549C34.3965 27.3692 33.9333 27.381 33.4709 27.3954C33.9599 24.2661 34.3682 21.3812 34.7182 18.5808C34.7549 18.3345 34.7439 18.0834 34.6857 17.8413C34.6275 17.5992 34.5231 17.3706 34.3784 17.168C34.2472 16.9858 34.076 16.8361 33.8779 16.7305C33.6797 16.6249 33.46 16.5661 33.2356 16.5587C32.796 16.5493 32.357 16.5366 31.9184 16.5281C31.8856 16.5279 31.8532 16.5357 31.8241 16.5508C31.795 16.566 31.77 16.5881 31.7514 16.6151C31.7329 16.6422 31.7212 16.6734 31.7175 16.706C31.2768 20.3546 30.7373 24.2549 30.0212 28.9814C29.9778 29.2218 29.9811 29.4684 30.031 29.7075C30.0809 29.9467 30.1764 30.174 30.3123 30.377C30.4355 30.5538 30.5997 30.6981 30.7908 30.7976C30.9819 30.897 31.1943 30.9487 31.4098 30.9481L31.4616 30.946C32.9594 30.8969 34.4704 30.8301 35.958 30.7512C36.2643 30.7077 36.5576 30.599 36.8183 30.4325C37.0789 30.266 37.3008 30.0455 37.469 29.7859C37.6372 29.5262 37.7477 29.2336 37.7931 28.9276C38.5394 24.6748 39.1102 20.7722 39.5387 17.0017C39.5417 16.9739 39.5393 16.9457 39.5314 16.9189C39.5236 16.892 39.5105 16.867 39.4929 16.8452Z" fill="rgb(177,66,0)" fill-rule="nonzero" />
		<path id="Vector 579" d="M21.6323 17.0389C21.504 16.8567 21.3335 16.7084 21.1352 16.6067C20.937 16.505 20.7171 16.4529 20.4943 16.455C18.993 16.47 17.4699 16.4942 15.9701 16.5284C15.6587 16.5631 15.3591 16.6675 15.0936 16.8338C14.8281 17.0001 14.6035 17.2241 14.4364 17.4891C14.2692 17.7542 14.164 18.0534 14.1283 18.3647C13.5551 22.1372 13.0975 25.5655 12.7293 28.8446C12.6994 29.0871 12.7152 29.3331 12.7759 29.5698C12.8366 29.8065 12.9412 30.0297 13.0842 30.2279C13.2173 30.414 13.3907 30.5676 13.5915 30.6774C13.7923 30.7871 14.0152 30.8502 14.2437 30.8618C15.7654 30.9287 17.2758 30.9777 18.7355 31.0106L18.7689 31.0125C19.0699 30.9841 19.3599 30.8851 19.6155 30.7237C19.8712 30.5623 20.0852 30.343 20.2402 30.0834C20.3953 29.8239 20.4871 29.5315 20.5081 29.2299C20.9687 25.5512 21.4701 21.8884 21.9441 18.4824C21.9865 18.233 21.9809 17.9778 21.9275 17.7306C21.8741 17.4833 21.7739 17.2485 21.6323 17.0389ZM17.0592 19.9788C17.5596 19.9744 18.0602 19.9691 18.561 19.9675C18.3667 21.2977 17.6872 26.3795 17.5549 27.5037C17.0565 27.495 16.5579 27.4846 16.0593 27.4727C16.2066 26.1985 16.899 21.0488 17.0592 19.9788Z" fill="rgb(177,66,0)" fill-rule="nonzero" />
		<path id="Vector 580" d="M18.8114 9.86747C17.8592 10.1085 16.9246 10.4147 16.0143 10.784C16.5471 11.0394 17.0969 11.2578 17.6597 11.4378C18.0992 10.7978 18.497 10.267 18.811 9.86747M33.1544 10.8454C32.17 10.4374 31.1565 10.1035 30.1224 9.84642C30.4413 10.2452 30.8737 10.8158 31.359 11.5234C31.9727 11.3402 32.5727 11.1136 33.1544 10.8453M30.8664 11.6658C30.1571 10.6435 29.5768 9.944 29.3391 9.66672C27.8443 9.35207 26.3222 9.18522 24.7948 9.16859L24.7948 11.5738C25.1827 11.5763 25.5675 11.644 25.9329 11.7742C26.2984 11.9044 26.6393 12.0952 26.9414 12.3386C28.2671 12.2311 29.5806 12.006 30.8664 11.6658ZM18.1479 11.5865C19.4831 11.9631 20.8511 12.2117 22.2335 12.3291C22.4883 12.0563 22.8022 11.8454 23.1511 11.7127C23.5 11.5801 23.8747 11.5291 24.2464 11.5637C24.2693 11.5637 24.2911 11.5637 24.3134 11.5642L24.3134 9.16724C22.724 9.17844 21.1399 9.35243 19.5859 9.68647C19.2842 10.0486 18.7601 10.7064 18.1479 11.5868M21.6593 14.6583C21.7138 14.2989 21.7848 13.8079 21.8306 13.4151C21.8518 13.2167 21.8961 13.0214 21.9626 12.8333C20.5657 12.7018 19.1845 12.4368 17.838 12.0422C17.2529 12.9151 16.7149 13.8187 16.2261 14.749C17.8278 14.7253 20.5437 14.6777 21.6595 14.6582M32.2225 32.7152C31.4373 32.7445 30.6768 32.7672 29.962 32.7796C28.4146 32.8078 26.6349 32.8364 24.7949 32.8465L24.7949 33.7057C26.9209 33.7074 29.0376 33.9873 31.091 34.5381C31.4541 33.9982 31.8394 33.3859 32.2225 32.7152M27.4116 12.8257C27.805 13.3503 28.0472 13.9724 28.1121 14.6249C28.5203 14.6374 29.1317 14.6543 29.7974 14.6728C30.6458 14.6963 31.6668 14.7242 32.741 14.7561C32.2681 13.8527 31.7474 12.9751 31.1811 12.1272C29.947 12.4674 28.6859 12.7011 27.4118 12.8257M33.2916 14.7723C35.4786 14.838 37.799 14.9168 39.2854 14.9973C37.7188 13.3616 35.8498 12.0454 33.7818 11.1218C33.1028 11.4688 32.3949 11.756 31.6661 11.9804C32.2592 12.8802 32.8019 13.8123 33.2915 14.7723M30.1101 36.712C31.0957 36.4676 32.0625 36.1531 33.0033 35.771C32.4471 35.512 31.8728 35.2936 31.285 35.1178C30.8327 35.7761 30.4236 36.3161 30.1101 36.712M15.5483 14.7582C15.59 14.7577 15.6336 14.757 15.6791 14.7565C16.1844 13.7708 16.744 12.814 17.3554 11.8903C16.6776 11.6677 16.0203 11.3868 15.3909 11.0509C14.7417 11.3405 14.1089 11.6655 13.4952 12.0243C13.9223 12.1567 14.31 12.3925 14.624 12.7107C14.8844 12.9902 15.0973 13.3103 15.2544 13.6585C15.4116 14.0066 15.5108 14.3781 15.5481 14.7582M31.5775 34.6849C32.2752 34.9006 32.9522 35.1782 33.6005 35.5143C35.3701 34.7397 37.0044 33.6868 38.4412 32.3956C36.6283 32.5085 34.6554 32.618 32.7913 32.6934C32.3831 33.4256 31.9688 34.0937 31.5775 34.6849ZM17.5637 32.7513C17.276 32.7407 16.9932 32.7303 16.7152 32.7199C17.1055 33.4035 17.4982 34.0264 17.8665 34.5731C19.9668 33.9962 22.135 33.704 24.313 33.7045L24.313 32.8489C24.0491 32.8498 23.7844 32.8502 23.5189 32.8502C21.3347 32.8502 19.3866 32.8182 17.5635 32.7516M24.7944 34.2108L24.7944 37.3866C26.3208 37.3703 27.8419 37.2039 29.3357 36.8899C29.6167 36.5562 30.1524 35.8933 30.7924 34.975C28.8331 34.4695 26.8179 34.2127 24.7944 34.2106M16.146 32.6981C13.5054 32.5957 11.4249 32.4976 10.646 32.4601C12.072 33.7281 13.6895 34.7627 15.4385 35.5258C16.0623 35.2019 16.713 34.9327 17.3831 34.721C16.9855 34.1238 16.5626 33.4455 16.1462 32.6981M16.0456 35.7841C16.9444 36.1477 17.867 36.4494 18.807 36.6871C18.5033 36.3034 18.1114 35.7849 17.6743 35.152C17.1174 35.3248 16.5732 35.536 16.0456 35.7841M19.5853 36.8696C21.1395 37.2034 22.7237 37.3774 24.3132 37.3888L24.3132 34.2101C22.2382 34.2097 20.1719 34.4781 18.1659 35.0087C18.7912 35.9033 19.3133 36.5475 19.5853 36.8696L19.5853 36.8696Z" fill="rgb(0,157,58)" fill-rule="nonzero" />
		<path id="Vector 581" d="M24.5565 7.75357C31.5442 7.75357 37.6826 10.6935 41.1295 15.099C41.4616 15.116 41.782 15.132 42.0905 15.1469C38.586 10.2804 32.0389 7 24.5565 7C17.1251 7 10.617 10.2339 7.09351 15.0434C7.43812 15.0302 7.76422 15.0183 8.05409 15.008C11.514 10.6533 17.6149 7.75357 24.5565 7.75357ZM24.5565 38.7992C18.0466 38.7992 12.2766 36.2489 8.72966 32.34C8.37286 32.3168 8.02467 32.2939 7.6851 32.2713C11.3168 36.6585 17.5234 39.556 24.5565 39.556C31.6288 39.556 37.8648 36.6247 41.4866 32.195C41.155 32.2176 40.8083 32.2415 40.4486 32.2658C36.9083 36.2165 31.106 38.7992 24.5565 38.7992L24.5565 38.7992Z" fill="rgb(0,157,58)" fill-rule="nonzero" />
		<path id="Vector 582" d="M13.4356 15.4985C12.5456 20.9341 11.8875 25.7816 11.4282 30.3137C11.0545 30.2911 10.6824 30.2704 10.3107 30.2493C10.1419 30.2374 9.97773 30.1887 9.82967 30.1067C9.68162 30.0247 9.55326 29.9114 9.45359 29.7746C9.33865 29.6205 9.25442 29.4457 9.20551 29.2598C9.15659 29.0739 9.1439 28.8803 9.16812 28.6895C9.64943 24.1651 10.345 19.391 11.2902 14.1014C11.6712 14.081 12.4928 14.0383 12.4928 14.0383C12.637 14.0352 12.7798 14.0677 12.9084 14.133C13.0371 14.1983 13.1476 14.2944 13.2302 14.4127C13.335 14.5709 13.4072 14.7484 13.4425 14.9349C13.4778 15.1214 13.4755 15.313 13.4358 15.4986M47.5921 19.0414C47.4934 19.7532 47.3912 20.4561 47.2868 21.1385C46.7362 21.131 46.1896 21.1231 45.6393 21.1184C45.5321 21.1113 45.4284 21.0779 45.3373 21.0211C45.2462 20.9643 45.1705 20.8858 45.117 20.7928C45.0635 20.6997 45.0338 20.5948 45.0306 20.4875C45.0421 20.359 45.0681 20.2323 45.108 20.1097C45.1168 20.0789 45.1186 20.0466 45.1132 20.015C45.1078 19.9834 45.0954 19.9535 45.077 19.9273C45.0591 19.9014 45.0353 19.88 45.0076 19.8649C44.9799 19.8498 44.9491 19.8415 44.9175 19.8405C44.9175 19.8405 43.5075 19.807 43.0811 19.796C43.0473 19.7953 43.0139 19.8031 42.9839 19.8187C42.9539 19.8342 42.9282 19.857 42.9093 19.8851C42.8904 19.9131 42.8788 19.9454 42.8756 19.979C42.8474 20.1873 42.5554 21.9177 42.5195 22.1609C42.515 22.1907 42.5167 22.2212 42.5245 22.2503C42.5324 22.2794 42.5462 22.3066 42.565 22.3302C42.5837 22.3531 42.6073 22.3716 42.634 22.3843C42.6608 22.3969 42.69 22.4035 42.7196 22.4036L45.8079 22.4036C45.9662 22.4008 46.1231 22.4337 46.267 22.4997C46.411 22.5658 46.5382 22.6634 46.6393 22.7853C46.7512 22.9175 46.8301 23.0743 46.8697 23.2429C46.9092 23.4115 46.9083 23.587 46.8669 23.7552C46.7171 25.2598 46.4507 26.7505 46.0701 28.2139C45.9724 28.5892 45.7747 28.931 45.4981 29.2029C45.2216 29.4748 44.8764 29.6666 44.4994 29.7579C42.4066 29.9965 39.9817 30.1218 39.9817 30.1218C39.8282 30.1363 39.6736 30.1114 39.5324 30.0493C39.3912 29.9873 39.2682 29.8903 39.175 29.7675C39.0745 29.62 39.0054 29.4534 38.9722 29.2781C38.9389 29.1027 38.9421 28.9224 38.9817 28.7484C39.1263 27.9253 39.2653 27.1061 39.3985 26.2908C39.9707 26.2724 40.5418 26.2534 41.1327 26.2321C41.2345 26.2377 41.3331 26.2701 41.4183 26.326C41.5036 26.3819 41.5726 26.4593 41.6183 26.5505C41.664 26.6416 41.6848 26.7432 41.6786 26.845C41.6695 26.9914 41.6504 27.1369 41.6213 27.2807C41.6172 27.3118 41.6197 27.3434 41.6285 27.3736C41.6373 27.4037 41.6524 27.4317 41.6727 27.4556C41.6923 27.4788 41.7172 27.497 41.7452 27.5087C41.7733 27.5203 41.8037 27.5252 41.834 27.5228C42.4461 27.4924 43.053 27.4597 43.666 27.428C43.6964 27.4254 43.7259 27.4163 43.7523 27.4012C43.7788 27.3861 43.8017 27.3654 43.8194 27.3405C43.837 27.3157 43.849 27.2873 43.8546 27.2573C43.9231 26.8898 44.1377 25.7042 44.2306 25.1499C44.2355 25.119 44.234 25.0875 44.2261 25.0573C44.2181 25.027 44.204 24.9988 44.1846 24.9743C44.1647 24.9514 44.14 24.9332 44.1123 24.9209C44.0845 24.9086 44.0544 24.9026 44.0241 24.9033C43.4797 24.9223 41.0107 24.9291 41.0107 24.9291C40.7979 24.9421 40.5861 24.8909 40.4027 24.7821C40.2193 24.6733 40.0728 24.512 39.9821 24.319C39.8914 24.1259 39.8608 23.9102 39.8942 23.6996C40.0244 22.4462 40.5948 18.8717 40.6227 18.6167C40.6411 18.3878 40.7146 18.1667 40.8369 17.9723C40.9592 17.7779 41.1267 17.616 41.3252 17.5003C41.5236 17.3847 41.7471 17.3188 41.9765 17.3082C43.9717 17.346 45.5776 17.4713 46.3932 17.5781C46.5733 17.6097 46.7464 17.6727 46.9047 17.7641C47.063 17.8556 47.204 17.9741 47.3213 18.1143C47.4278 18.242 47.5069 18.3903 47.5535 18.5499C47.6001 18.7095 47.6133 18.8771 47.5922 19.042M37.408 28.8568C37.3706 29.1036 37.2817 29.3399 37.1471 29.5501C37.0124 29.7603 36.835 29.9399 36.6264 30.077C36.4177 30.2142 36.1826 30.3059 35.9362 30.3461C34.4536 30.4235 32.9423 30.4893 31.4483 30.538L31.4099 30.5413C31.256 30.5428 31.1041 30.5064 30.9675 30.4354C30.831 30.3644 30.714 30.2609 30.6269 30.1341C30.5222 29.9751 30.4493 29.7973 30.4122 29.6106C30.3752 29.4239 30.3746 29.2317 30.4106 29.0448C31.1132 24.3939 31.6489 20.5383 32.0869 16.9387C32.4663 16.9473 32.8436 16.9556 33.224 16.9664C33.39 16.9713 33.5526 17.0146 33.6991 17.0929C33.8455 17.1713 33.9718 17.2825 34.068 17.4179C34.181 17.5775 34.2622 17.7574 34.3073 17.9477C34.3523 18.1381 34.3603 18.3353 34.3309 18.5286C33.97 21.396 33.5503 24.3528 33.045 27.5718C33.04 27.6008 33.0414 27.6305 33.0492 27.6589C33.057 27.6873 33.071 27.7136 33.0902 27.7359C33.1084 27.7585 33.1315 27.7766 33.1578 27.7887C33.1842 27.8009 33.2129 27.8068 33.2419 27.806C33.8401 27.7896 34.4373 27.7736 35.0323 27.7552C35.0629 27.7537 35.0928 27.7452 35.1196 27.7303C35.1464 27.7155 35.1694 27.6946 35.1869 27.6694C35.2043 27.6442 35.2158 27.6153 35.2202 27.585C35.7411 24.3486 36.1668 21.3711 36.5235 18.4814C36.5376 18.249 36.6074 18.0235 36.7269 17.8237C36.8464 17.6239 37.0121 17.4557 37.2101 17.3332C37.4081 17.2108 37.6326 17.1377 37.8647 17.1201L39.125 17.1709C38.6993 20.866 38.1373 24.692 37.4081 28.8564M4.07634 19.8364C4.04657 19.8373 4.01736 19.8447 3.99082 19.8582C3.96428 19.8717 3.94105 19.891 3.92282 19.9145C3.90458 19.938 3.89178 19.9653 3.88535 19.9944C3.76925 20.4748 2.89942 26.4924 2.86612 27.2278C2.86363 27.2638 2.87066 27.2999 2.8865 27.3324C2.90234 27.3649 2.92643 27.3927 2.95638 27.413C2.98632 27.4332 3.02105 27.4453 3.05711 27.4479C3.31475 27.463 4.7321 27.5489 5.11187 27.5669C5.14468 27.5676 5.17717 27.5605 5.20673 27.5462C5.23628 27.532 5.26206 27.511 5.28198 27.4849C5.3019 27.4588 5.31539 27.4284 5.32137 27.3962C5.42054 26.8126 5.67948 25.3923 5.7187 25.1104C5.72374 25.0813 5.72237 25.0514 5.7147 25.0228C5.70703 24.9942 5.69324 24.9677 5.67429 24.9449C5.65686 24.9223 5.63449 24.9039 5.60889 24.8912C5.58328 24.8785 5.55512 24.8718 5.52653 24.8716L5.15149 24.8603C5.07662 24.8547 5.00381 24.8332 4.93793 24.7972C4.87205 24.7612 4.81463 24.7115 4.76952 24.6515C4.70657 24.5748 4.65997 24.4861 4.6326 24.3908C4.60523 24.2955 4.59766 24.1956 4.61036 24.0973C4.69016 23.5352 4.77014 23.0207 4.85632 22.4644L7.64953 22.4612C7.7457 22.4504 7.84307 22.4604 7.93506 22.4904C8.02705 22.5205 8.11152 22.5699 8.18276 22.6354C8.23413 22.7164 8.26845 22.8071 8.28363 22.9018C8.2988 22.9965 8.29452 23.0934 8.27103 23.1864C8.23153 23.5072 7.77099 27.4156 7.53089 28.8442C7.38065 29.7365 7.00257 30.1066 6.2288 30.1144L6.15921 30.1144C4.6636 30.0757 3.17187 29.9435 1.69276 29.7186C1.50897 29.7056 1.32878 29.661 1.16007 29.587C0.99135 29.5129 0.83661 29.4105 0.702599 29.284C0.485017 28.9454 0.37817 28.5475 0.396871 28.1455C0.631937 25.0616 1.03334 21.9927 1.5993 18.9522C1.72074 18.5644 1.94907 18.2186 2.25808 17.9546C2.56708 17.6907 2.94425 17.5191 3.3463 17.4598C4.84983 17.307 6.7841 17.2268 7.9171 17.2268C8.07428 17.2195 8.23096 17.2493 8.37446 17.3139C8.51797 17.3784 8.64425 17.4758 8.74308 17.5983C8.84946 17.7535 8.92331 17.9286 8.96017 18.1131C8.99703 18.2976 8.99614 18.4877 8.95755 18.6718C8.82458 19.4857 8.69342 20.3001 8.56812 21.11L6.86452 21.122C6.75646 21.1155 6.65185 21.0815 6.56071 21.023C6.46957 20.9646 6.39493 20.8838 6.34394 20.7883C6.29294 20.6928 6.26729 20.5858 6.26943 20.4776C6.27282 20.4211 6.37068 19.8173 6.37068 19.8173C6.37068 19.8173 4.42733 19.8268 4.07634 19.8363M18.7888 19.5586C18.156 19.5633 17.5232 19.5667 16.8907 19.5729C16.8602 19.5737 16.8303 19.5815 16.8034 19.5958C16.7764 19.61 16.7531 19.6302 16.7353 19.655C16.7174 19.6797 16.7055 19.7082 16.7005 19.7382C16.6041 20.2739 15.7201 26.8588 15.6474 27.6541C15.6447 27.6812 15.6475 27.7086 15.6555 27.7347C15.6636 27.7607 15.6767 27.785 15.6942 27.8059C15.7119 27.8268 15.7338 27.8438 15.7585 27.8556C15.7832 27.8673 15.8102 27.8737 15.8376 27.8741C16.4662 27.8901 17.096 27.903 17.7269 27.9128L17.7298 27.9128C17.7627 27.9124 17.795 27.9038 17.8238 27.8879C17.8526 27.8719 17.877 27.849 17.8948 27.8213C17.9125 27.7936 17.9232 27.7619 17.9257 27.7291C17.9741 27.2029 18.8537 20.6052 18.9839 19.7958C18.9885 19.7666 18.9869 19.7368 18.979 19.7084C18.9711 19.6799 18.9573 19.6535 18.9384 19.6308C18.9212 19.6075 18.8986 19.5888 18.8725 19.5762C18.8465 19.5636 18.8178 19.5576 18.7888 19.5586M21.5556 18.4242C21.0826 21.8331 20.5803 25.496 20.1196 29.1758C20.106 29.4139 20.0368 29.6456 19.9176 29.8522C19.7983 30.0587 19.6323 30.2345 19.4328 30.3653C19.2334 30.4961 19.006 30.5784 18.769 30.6055L18.7437 30.6055C17.287 30.5721 15.7788 30.5213 14.26 30.4546C14.0892 30.4452 13.9228 30.3973 13.7731 30.3146C13.6235 30.2318 13.4944 30.1163 13.3957 29.9767C13.2834 29.8218 13.2015 29.6471 13.1544 29.4617C13.1074 29.2763 13.0959 29.0837 13.1208 28.894C13.4854 25.6172 13.943 22.1953 14.5159 18.428C14.5422 18.1777 14.6243 17.9366 14.7562 17.7223C14.8881 17.508 15.0664 17.326 15.278 17.1898C15.4896 17.0535 15.729 16.9665 15.9787 16.9351C17.4777 16.9006 18.9986 16.8761 20.5082 16.8603C20.6675 16.8605 20.8244 16.8991 20.9655 16.9729C21.1067 17.0466 21.228 17.1533 21.3191 17.2839C21.4287 17.4504 21.5058 17.6362 21.5463 17.8314C21.5868 18.0266 21.5899 18.2276 21.5556 18.424M30.2383 18.4615C29.832 21.6321 29.3553 25.0275 28.7434 29.1517C28.7223 29.3992 28.6452 29.6387 28.518 29.8521C28.3908 30.0655 28.2168 30.2472 28.0091 30.3836C27.8014 30.5199 27.5655 30.6073 27.3191 30.6392C25.8577 30.6635 24.3394 30.6699 22.8412 30.6635C22.675 30.6619 22.5117 30.62 22.3651 30.5415C22.2186 30.4629 22.0933 30.3501 21.9999 30.2126C21.8887 30.0477 21.8098 29.8633 21.7673 29.6691C21.7248 29.4749 21.7194 29.2744 21.7515 29.0782C22.1974 25.6012 23.5945 15.3716 23.8137 13.74C23.8137 13.74 24.6353 13.74 24.9435 13.7407C25.1056 13.7422 25.2649 13.7831 25.4077 13.8596C25.5505 13.9362 25.6726 14.0463 25.7636 14.1804C25.8753 14.347 25.9544 14.5332 25.9968 14.7292C26.0392 14.9252 26.0441 15.1274 26.0112 15.3252C26.0112 15.3252 25.8913 16.2548 25.843 16.6194C25.8398 16.648 25.8424 16.6769 25.8506 16.7045C25.8587 16.7321 25.8724 16.7578 25.8906 16.78C25.9084 16.8019 25.9307 16.8196 25.9561 16.8318C25.9815 16.844 26.0092 16.8505 26.0374 16.8507C27.0746 16.857 28.112 16.8678 29.1493 16.8831C29.3133 16.8859 29.4743 16.9276 29.619 17.0047C29.7638 17.0818 29.8882 17.1921 29.9822 17.3265C30.0945 17.491 30.1748 17.6752 30.2187 17.8695C30.2626 18.0638 30.2695 18.2647 30.2388 18.4615M27.5261 19.5501C27.5261 19.5501 26.171 19.5451 25.628 19.5427C25.596 19.5433 25.5647 19.5516 25.5366 19.5669C25.5085 19.5822 25.4845 19.604 25.4665 19.6304C25.4485 19.6569 25.4372 19.6873 25.4334 19.719C25.3874 20.0809 24.3429 27.7358 24.3429 27.7358C24.339 27.7645 24.3411 27.7938 24.3489 27.8217C24.3567 27.8497 24.3702 27.8757 24.3884 27.8983C24.4068 27.9198 24.4297 27.9371 24.4555 27.949C24.4812 27.9608 24.5092 27.967 24.5376 27.9671C25.1659 27.9671 25.7968 27.9629 26.4262 27.9592C26.4575 27.9578 26.4881 27.9493 26.5156 27.9343C26.5432 27.9193 26.5669 27.8982 26.585 27.8726C26.6031 27.847 26.615 27.8176 26.62 27.7867C26.6897 27.316 27.623 20.5696 27.7192 19.7798C27.7229 19.7511 27.7206 19.7219 27.7124 19.6941C27.7043 19.6663 27.6904 19.6406 27.6717 19.6184C27.6538 19.5972 27.6315 19.5801 27.6064 19.5683C27.5812 19.5565 27.5538 19.5503 27.5261 19.5501L27.5261 19.5501Z" fill="rgb(238,113,0)" fill-rule="nonzero" />
	</g>
</svg>
