<svg viewBox="0 0 48 48" xmlns="http://www.w3.org/2000/svg" xmlns:xlink="http://www.w3.org/1999/xlink" width="48.000000" height="48.000000" fill="none" customFrame="#000000">
	<defs>
		<clipPath id="clipPath_23">
			<rect width="48.000000" height="48.000000" x="0.000000" y="0.000000" fill="rgb(255,255,255)" />
		</clipPath>
		<clipPath id="clipPath_24">
			<rect width="47.911350" height="48.000000" x="0.000000" y="0.000000" fill="rgb(255,255,255)" />
		</clipPath>
	</defs>
	<rect id="Property 1=gazprombank" width="48.000000" height="48.000000" x="0.000000" y="0.000000" fill="rgb(255,255,255)" fill-opacity="0" />
	<g id="Frame 9" clip-path="url(#clipPath_23)" customFrame="url(#clipPath_23)">
		<rect id="Frame 9" width="48.000000" height="48.000000" x="0.000000" y="0.000000" />
		<g id="Gazprombank_en 1" clip-path="url(#clipPath_24)" customFrame="url(#clipPath_24)">
			<rect id="Gazprombank_en 1" width="47.911350" height="48.000000" x="0.000000" y="0.000000" />
			<path id="Vector 550" d="M20.4285 47.7509C18.2081 47.4347 14.4957 46.1789 12.4248 45.0436C6.22663 41.6466 1.85439 35.6829 0.362469 28.5905C-0.119472 26.3021 -0.12109 21.6856 0.359235 19.4045C1.99751 11.6158 7.20669 5.11037 14.2401 2.06912C19.7873 -0.329266 25.4906 -0.64463 31.1323 1.13354C35.3024 2.44837 38.266 4.3163 41.4181 7.6163C45.7248 12.126 47.9114 17.6376 47.9114 23.9902C47.9114 30.3428 45.7248 35.8527 41.4181 40.3641C38.2725 43.6568 35.3016 45.5312 31.1566 46.8388C27.5429 47.9781 24.0827 48.2725 20.4286 47.7509L20.4285 47.7509ZM29.4334 46.4862C35.8782 44.991 41.7359 40.3164 44.8151 34.2112C45.1742 33.4996 45.7968 31.9277 46.1995 30.718C46.8909 28.6398 46.9313 28.2694 46.9313 23.9902C46.9313 19.7109 46.8909 19.3406 46.1995 17.2624C43.9968 10.6398 39.6456 5.71765 33.4757 2.86724C28.1631 0.412246 21.424 0.189065 15.7709 2.28017C9.07866 4.75457 3.52582 10.8492 1.47999 17.9659C0.991582 19.6632 0.901016 20.6093 0.901016 23.9902C0.901016 27.3703 0.991582 28.3163 1.47999 30.0145C2.78835 34.5638 5.88297 39.2635 9.36249 41.9854C15.3253 46.6512 22.138 48.1795 29.4334 46.4862ZM21.5445 41.5997C17.0315 40.8865 12.508 38.3611 11.5102 35.9967C11.3242 35.556 10.7574 34.939 10.2504 34.6253C9.04389 33.8797 8.2668 32.5899 8.2668 31.3333C8.2668 30.5433 8.09375 30.1649 7.45898 29.5657C6.71181 28.8606 6.66248 28.7069 6.78782 27.4915C6.88081 26.5891 6.80965 26.0231 6.55979 25.6818C5.67838 24.4762 6.5606 21.9128 8.31855 20.5746C11.0517 18.494 16.3838 16.8371 25.6038 15.2053C27.2404 14.9158 28.9288 14.5762 29.3558 14.45C30.9075 13.9915 29.1908 13.7692 24.1806 13.7772C19.9628 13.7845 18.9326 13.8678 16.9353 14.3675C13.8043 15.1503 12.2048 15.764 9.37785 17.2689C7.2738 18.3888 7.0207 18.4697 7.20265 17.9643C7.6579 16.7053 12.8315 14.1791 17.2563 13.0559C19.2277 12.5546 20.1617 12.4818 24.4393 12.502C27.1434 12.5142 29.9259 12.6476 30.6229 12.7972C31.8075 13.0519 31.9313 13.0276 32.5305 12.4284C32.883 12.0767 33.0698 11.6942 32.9453 11.5794C32.3469 11.0271 29.0744 10.4813 25.5722 10.3503C22.6531 10.2403 21.1749 10.3098 19.1056 10.6559C15.8186 11.2058 12.5477 12.1349 10.8237 13.0082C9.56788 13.6446 9.53796 13.647 9.82502 13.1101C10.446 11.9514 15.3843 10.2007 20.4019 9.36213C23.5701 8.83167 27.7822 8.94003 30.7321 9.62574C31.7744 9.86833 32.6865 10.0058 32.7601 9.93302C32.9922 9.70095 31.6474 8.96267 29.6914 8.24946C27.9059 7.59852 27.5558 7.56213 23.2749 7.5783C19.1938 7.59286 18.5356 7.65916 16.6118 8.24946C15.4377 8.6093 14.4771 8.86563 14.4771 8.81874C14.4771 8.60364 16.5949 7.68908 18.2323 7.19663C24.6593 5.26239 32.469 6.70013 34.8512 10.2549C35.1771 10.7416 35.8208 11.3643 36.2809 11.6392C37.7461 12.5125 38.786 13.6851 38.9599 14.6578C39.0504 15.1656 39.4588 15.9136 39.8663 16.3212C40.8221 17.2754 41.3016 18.7859 40.8917 19.5516C40.6458 20.0101 40.6927 20.239 41.1601 20.8713C42.175 22.2444 41.7165 23.97 39.9173 25.5492C38.6194 26.6894 35.296 28.2201 32.6687 28.8889C30.8801 29.3433 22.1445 30.9589 21.3342 30.984C21.1919 30.9889 21.2736 31.1077 21.5162 31.2492C21.7587 31.3907 23.1844 31.6438 24.6835 31.8112C29.2523 32.3215 34.5399 31.466 39.3828 29.4314C40.3434 29.0279 41.1294 28.7942 41.1294 28.9131C41.1294 29.6716 37.2302 31.3366 33.2372 32.2819C28.4194 33.422 24.238 33.4212 19.6038 32.277C18.086 31.9026 17.3962 31.8452 16.7008 32.0376C15.3221 32.4177 15.3674 32.6967 16.9021 33.2708C22.9361 35.5285 29.896 35.5948 37.2528 33.4633C39.682 32.7598 39.9165 33.1277 37.6248 34.0463C31.0466 36.6824 22.5261 36.8554 16.2075 34.4797C14.0825 33.6808 13.7889 33.6274 13.442 33.9784C13.0967 34.3285 13.1089 34.4134 13.5568 34.7449C14.2506 35.2592 17.8102 36.6096 20.1617 37.2509C21.7353 37.6794 22.907 37.7846 26.2507 37.7935C30.2679 37.8048 31.5431 37.6398 35.9542 36.5344C36.5833 36.3767 36.5873 36.3832 36.0884 36.7867C35.4658 37.2905 32.2766 38.3207 29.9914 38.7573C27.6925 39.1964 23 39.1989 20.8167 38.763C19.0636 38.4129 16.7453 37.6875 14.6064 36.8183L13.5714 36.3978L14.4771 37.1983C15.9382 38.4889 19.3879 40.0277 21.783 40.4571C24.1418 40.8808 27.6213 40.7563 30.1992 40.1579C31.0135 39.9679 31.7146 39.8474 31.7566 39.8894C31.869 40.0026 29.2571 41.0029 28.0612 41.3045C26.5491 41.6878 23.0906 41.8439 21.5445 41.5997L21.5445 41.5997ZM11.6307 32.7816C11.6307 32.48 10.5981 31.9228 10.4016 32.1185C10.1865 32.3344 11.1398 33.3193 11.4059 33.1544C11.5296 33.0784 11.6307 32.911 11.6307 32.7824L11.6307 32.7816ZM13.9595 31.1142L14.6064 30.7527L13.3797 30.2069C12.4013 29.7711 12.0447 29.7201 11.6113 29.9514C11.0145 30.2708 11.042 30.3323 12.0811 30.9986C12.956 31.5597 13.142 31.5711 13.9595 31.1142ZM17.9501 29.691C18.314 29.5519 21.3779 28.9164 24.7587 28.2775C33.7943 26.5713 37.6855 25.2889 39.0326 23.5762C39.5502 22.918 39.7321 22.1619 39.4426 21.8724C39.369 21.7988 38.2919 22.2428 37.0491 22.8589C34.3539 24.1956 30.5687 25.1918 23.5005 26.425C18.217 27.3468 14.2175 28.3026 14.2175 28.6438C14.2175 28.8517 16.4541 29.8843 16.983 29.9207C17.1512 29.932 17.587 29.8285 17.9501 29.6902L17.9501 29.691ZM9.81936 28.6414C9.81936 28.3398 8.78674 27.7827 8.59025 27.9783C8.37515 28.1942 9.32852 29.1792 9.59456 29.0142C9.71828 28.9382 9.81936 28.7708 9.81936 28.6422L9.81936 28.6414ZM12.6795 26.8293C14.2159 26.0449 17.9299 25.1296 23.1455 24.2473C25.7073 23.8147 29.2588 23.1056 31.0377 22.6721C34.4299 21.8449 37.8609 20.4727 37.5981 20.0465C37.5124 19.9091 37.0588 19.6365 36.5882 19.4401C35.7997 19.1101 35.5272 19.1489 33.0625 19.9511C31.5924 20.4282 29.2846 21.0169 27.9326 21.2587C21.7385 22.364 17.2749 23.2932 15.2533 23.898C13.0167 24.5667 10.0781 25.9568 10.0781 26.3465C10.0781 26.5163 11.2531 27.2991 11.5757 27.3436C11.6169 27.3492 12.1134 27.1172 12.6795 26.8293ZM11.3355 23.0344C13.5124 22.0681 16.6838 21.2303 21.9277 20.2357C28.8698 18.9185 31.9135 18.2675 32.1504 18.0484C32.4278 17.7921 29.7197 17.2624 28.1307 17.2624C25.9749 17.2624 21.2582 18.046 17.1391 19.0875C11.1366 20.6061 8.00804 22.2832 8.00804 23.9821C8.00804 25.0131 8.2482 25.0867 9.14335 24.3298C9.58648 23.9562 10.573 23.3724 11.3355 23.0344L11.3355 23.0344ZM38.9558 17.9214C38.7723 17.1913 38.2523 17.0643 37.7793 17.6328C37.5302 17.9336 37.6094 18.0759 38.2006 18.3864C39.0739 18.8449 39.1725 18.7834 38.9558 17.9214L38.9558 17.9214ZM35.6372 16.601C35.9542 16.3794 36.213 16.0988 36.213 15.9775C36.213 15.8562 35.5127 15.5206 34.658 15.232L33.103 14.7063L32.0453 15.308L30.9876 15.9088L32.6299 16.4287C34.6919 17.0821 34.9313 17.0958 35.638 16.601L35.6372 16.601ZM36.7305 14.2058C36.7305 14.0902 36.3852 13.664 35.9631 13.2597C35.3138 12.6379 35.1342 12.5772 34.7906 12.8627C34.2229 13.3333 34.4154 13.6802 35.452 14.0546C36.5485 14.4508 36.7297 14.4727 36.7297 14.2058L36.7305 14.2058Z" fill="rgb(0,69,124)" fill-rule="nonzero" />
		</g>
	</g>
</svg>
